<mxfile host="Electron" agent="Mozilla/5.0 (Windows NT 10.0; Win64; x64) AppleWebKit/537.36 (KHTML, like Gecko) draw.io/28.0.6 Chrome/138.0.7204.100 Electron/37.2.3 Safari/537.36" version="28.0.6">
  <diagram name="Page-1" id="JbcsaPMDXRVTLl8AdeWN">
    <mxGraphModel dx="1042" dy="1726" grid="1" gridSize="10" guides="1" tooltips="1" connect="1" arrows="1" fold="1" page="1" pageScale="1" pageWidth="850" pageHeight="1100" math="0" shadow="0">
      <root>
        <mxCell id="0" />
        <mxCell id="1" parent="0" />
        <mxCell id="4vh_DADQjgmM_uIe7vAA-6" style="edgeStyle=orthogonalEdgeStyle;rounded=0;orthogonalLoop=1;jettySize=auto;html=1;exitX=1;exitY=0.5;exitDx=0;exitDy=0;" parent="1" source="4vh_DADQjgmM_uIe7vAA-1" edge="1">
          <mxGeometry relative="1" as="geometry">
            <mxPoint x="85" y="490" as="targetPoint" />
          </mxGeometry>
        </mxCell>
        <mxCell id="4vh_DADQjgmM_uIe7vAA-1" value="" style="rounded=0;whiteSpace=wrap;html=1;direction=south;" parent="1" vertex="1">
          <mxGeometry x="40" y="120" width="90" height="360" as="geometry" />
        </mxCell>
        <mxCell id="4vh_DADQjgmM_uIe7vAA-2" value="SOURCES" style="rounded=1;whiteSpace=wrap;html=1;strokeColor=none;" parent="1" vertex="1">
          <mxGeometry x="40" y="110" width="90" height="30" as="geometry" />
        </mxCell>
        <mxCell id="4vh_DADQjgmM_uIe7vAA-3" value="" style="rounded=0;whiteSpace=wrap;html=1;" parent="1" vertex="1">
          <mxGeometry x="205" y="90" width="440" height="440" as="geometry" />
        </mxCell>
        <mxCell id="4vh_DADQjgmM_uIe7vAA-4" value="DATAWAREHOUSE" style="rounded=1;whiteSpace=wrap;html=1;strokeColor=none;" parent="1" vertex="1">
          <mxGeometry x="335" y="60" width="180" height="40" as="geometry" />
        </mxCell>
        <mxCell id="4vh_DADQjgmM_uIe7vAA-5" value="" style="rounded=0;whiteSpace=wrap;html=1;" parent="1" vertex="1">
          <mxGeometry x="720" y="140" width="90" height="360" as="geometry" />
        </mxCell>
        <mxCell id="4vh_DADQjgmM_uIe7vAA-7" value="" style="rounded=0;whiteSpace=wrap;html=1;" parent="1" vertex="1">
          <mxGeometry x="220" y="140" width="105" height="320" as="geometry" />
        </mxCell>
        <mxCell id="4vh_DADQjgmM_uIe7vAA-8" value="" style="rounded=0;whiteSpace=wrap;html=1;" parent="1" vertex="1">
          <mxGeometry x="367.5" y="140" width="105" height="320" as="geometry" />
        </mxCell>
        <mxCell id="4vh_DADQjgmM_uIe7vAA-9" value="" style="rounded=0;whiteSpace=wrap;html=1;" parent="1" vertex="1">
          <mxGeometry x="515" y="140" width="105" height="320" as="geometry" />
        </mxCell>
        <mxCell id="4vh_DADQjgmM_uIe7vAA-10" value="&lt;b&gt;BRONZE&lt;/b&gt;" style="rounded=0;whiteSpace=wrap;html=1;strokeColor=#C73500;fillColor=#fa6800;fontColor=#000000;" parent="1" vertex="1">
          <mxGeometry x="225" y="130" width="95" height="30" as="geometry" />
        </mxCell>
        <mxCell id="4vh_DADQjgmM_uIe7vAA-11" value="GOLD" style="rounded=0;whiteSpace=wrap;html=1;strokeColor=#d79b00;fontStyle=1;fillColor=#ffcd28;gradientColor=#ffa500;" parent="1" vertex="1">
          <mxGeometry x="525" y="130" width="95" height="30" as="geometry" />
        </mxCell>
        <mxCell id="4vh_DADQjgmM_uIe7vAA-13" value="&lt;b&gt;SILVER&lt;/b&gt;" style="rounded=0;whiteSpace=wrap;html=1;fillColor=#b1ddf0;strokeColor=#10739e;" parent="1" vertex="1">
          <mxGeometry x="372.5" y="130" width="95" height="30" as="geometry" />
        </mxCell>
        <mxCell id="4vh_DADQjgmM_uIe7vAA-15" value="CONSUME" style="rounded=1;whiteSpace=wrap;html=1;strokeColor=none;" parent="1" vertex="1">
          <mxGeometry x="720" y="130" width="90" height="30" as="geometry" />
        </mxCell>
        <mxCell id="4vh_DADQjgmM_uIe7vAA-25" value="" style="image;aspect=fixed;perimeter=ellipsePerimeter;html=1;align=center;shadow=0;dashed=0;spacingTop=3;image=img/lib/active_directory/folder.svg;" parent="1" vertex="1">
          <mxGeometry x="67" y="140" width="36.5" height="50" as="geometry" />
        </mxCell>
        <mxCell id="4vh_DADQjgmM_uIe7vAA-26" value="" style="image;aspect=fixed;perimeter=ellipsePerimeter;html=1;align=center;shadow=0;dashed=0;spacingTop=3;image=img/lib/active_directory/folder.svg;" parent="1" vertex="1">
          <mxGeometry x="67" y="240.66" width="36.02" height="49.34" as="geometry" />
        </mxCell>
        <mxCell id="4vh_DADQjgmM_uIe7vAA-27" value="" style="image;aspect=fixed;html=1;points=[];align=center;fontSize=12;image=img/lib/azure2/general/File.svg;" parent="1" vertex="1">
          <mxGeometry x="67" y="170" width="33" height="40.66" as="geometry" />
        </mxCell>
        <mxCell id="4vh_DADQjgmM_uIe7vAA-30" value="CRM" style="rounded=0;whiteSpace=wrap;html=1;strokeColor=none;" parent="1" vertex="1">
          <mxGeometry x="43.5" y="210.66" width="80" height="30" as="geometry" />
        </mxCell>
        <mxCell id="4vh_DADQjgmM_uIe7vAA-31" value="ERP" style="rounded=0;whiteSpace=wrap;html=1;strokeColor=none;" parent="1" vertex="1">
          <mxGeometry x="52.25" y="320" width="66" height="30" as="geometry" />
        </mxCell>
        <mxCell id="4vh_DADQjgmM_uIe7vAA-32" value="" style="endArrow=none;html=1;rounded=0;" parent="1" edge="1">
          <mxGeometry width="50" height="50" relative="1" as="geometry">
            <mxPoint x="50.25" y="360" as="sourcePoint" />
            <mxPoint x="120.25" y="360" as="targetPoint" />
            <Array as="points">
              <mxPoint x="80.25" y="360" />
            </Array>
          </mxGeometry>
        </mxCell>
        <mxCell id="4vh_DADQjgmM_uIe7vAA-29" value="" style="image;aspect=fixed;html=1;points=[];align=center;fontSize=12;image=img/lib/azure2/general/File.svg;" parent="1" vertex="1">
          <mxGeometry x="70.25" y="271.52" width="30" height="36.96" as="geometry" />
        </mxCell>
        <mxCell id="4vh_DADQjgmM_uIe7vAA-36" value="OBJECT TYPE:CSV FILE&lt;div&gt;INTERFACE FILES IN FOLDER&lt;/div&gt;" style="rounded=0;whiteSpace=wrap;html=1;fontSize=8;" parent="1" vertex="1">
          <mxGeometry x="40.129999999999995" y="380" width="90.25" height="80" as="geometry" />
        </mxCell>
        <mxCell id="4vh_DADQjgmM_uIe7vAA-38" value="" style="html=1;verticalLabelPosition=bottom;align=center;labelBackgroundColor=#ffffff;verticalAlign=top;strokeWidth=2;strokeColor=#0080F0;shadow=0;dashed=0;shape=mxgraph.ios7.icons.data;" parent="1" vertex="1">
          <mxGeometry x="400.25" y="173.78" width="39.5" height="44.22" as="geometry" />
        </mxCell>
        <mxCell id="4vh_DADQjgmM_uIe7vAA-39" value="" style="html=1;verticalLabelPosition=bottom;align=center;labelBackgroundColor=#ffffff;verticalAlign=top;strokeWidth=2;strokeColor=#0080F0;shadow=0;dashed=0;shape=mxgraph.ios7.icons.data;" parent="1" vertex="1">
          <mxGeometry x="250" y="170" width="40" height="48" as="geometry" />
        </mxCell>
        <mxCell id="4vh_DADQjgmM_uIe7vAA-40" value="" style="html=1;verticalLabelPosition=bottom;align=center;labelBackgroundColor=#ffffff;verticalAlign=top;strokeWidth=2;strokeColor=#0080F0;shadow=0;dashed=0;shape=mxgraph.ios7.icons.data;" parent="1" vertex="1">
          <mxGeometry x="550" y="175.78" width="39.75" height="46.66" as="geometry" />
        </mxCell>
        <mxCell id="4vh_DADQjgmM_uIe7vAA-41" value="" style="shape=singleArrow;whiteSpace=wrap;html=1;fillColor=#647687;fontColor=#ffffff;strokeColor=#314354;" parent="1" vertex="1">
          <mxGeometry x="130" y="248.48" width="70" height="60" as="geometry" />
        </mxCell>
        <mxCell id="4vh_DADQjgmM_uIe7vAA-42" value="" style="shape=singleArrow;whiteSpace=wrap;html=1;fillColor=#647687;fontColor=#ffffff;strokeColor=#314354;" parent="1" vertex="1">
          <mxGeometry x="650" y="260" width="70" height="60" as="geometry" />
        </mxCell>
        <mxCell id="4vh_DADQjgmM_uIe7vAA-46" value="" style="endArrow=classic;html=1;rounded=0;" parent="1" edge="1">
          <mxGeometry width="50" height="50" relative="1" as="geometry">
            <mxPoint x="325" y="290" as="sourcePoint" />
            <mxPoint x="370" y="290" as="targetPoint" />
          </mxGeometry>
        </mxCell>
        <mxCell id="4vh_DADQjgmM_uIe7vAA-48" value="" style="endArrow=classic;html=1;rounded=0;" parent="1" edge="1">
          <mxGeometry width="50" height="50" relative="1" as="geometry">
            <mxPoint x="470" y="289" as="sourcePoint" />
            <mxPoint x="515" y="289" as="targetPoint" />
          </mxGeometry>
        </mxCell>
        <mxCell id="4vh_DADQjgmM_uIe7vAA-49" value="RAW DATA" style="rounded=0;whiteSpace=wrap;html=1;strokeColor=none;" parent="1" vertex="1">
          <mxGeometry x="221.5" y="218.00000000000003" width="97" height="30" as="geometry" />
        </mxCell>
        <mxCell id="4vh_DADQjgmM_uIe7vAA-51" value="CLEAN, STANDARDIZED DATA" style="rounded=0;whiteSpace=wrap;html=1;strokeColor=none;" parent="1" vertex="1">
          <mxGeometry x="370" y="229.99999999999997" width="100" height="30" as="geometry" />
        </mxCell>
        <mxCell id="4vh_DADQjgmM_uIe7vAA-53" value="BUSINESS READY DATA" style="rounded=0;whiteSpace=wrap;html=1;strokeColor=none;" parent="1" vertex="1">
          <mxGeometry x="525" y="229.99999999999997" width="97" height="30" as="geometry" />
        </mxCell>
        <mxCell id="YnLpZKvqTVDdp9C1WOKk-2" value="TRANSFORMATION&lt;div&gt;DATA CLEANING&lt;/div&gt;&lt;div&gt;DATA STANDARDIZATION&lt;/div&gt;&lt;div&gt;DATA NORMALIZATION&lt;/div&gt;&lt;div&gt;DERIVED COLUMNS&lt;/div&gt;&lt;div&gt;DATA ENRICHMENT&lt;/div&gt;" style="rounded=0;whiteSpace=wrap;html=1;fontSize=9;" vertex="1" parent="1">
          <mxGeometry x="370.25" y="271.52" width="99.75" height="170" as="geometry" />
        </mxCell>
        <mxCell id="YnLpZKvqTVDdp9C1WOKk-3" value="TRANSFORMATIONS&lt;div&gt;DATAINTEGRATION&lt;/div&gt;&lt;div&gt;AGGREGATION&lt;/div&gt;&lt;div&gt;BUSINESS LOGIC&lt;/div&gt;&lt;div&gt;&lt;br&gt;&lt;/div&gt;&lt;div&gt;DATA&amp;nbsp; MODEL&lt;/div&gt;&lt;div&gt;STAR SCHEMA&amp;nbsp;&lt;/div&gt;&lt;div&gt;FLAT TABLE&lt;/div&gt;&lt;div&gt;AGGREGATED TABLE&lt;/div&gt;" style="rounded=0;whiteSpace=wrap;html=1;fontSize=8;" vertex="1" parent="1">
          <mxGeometry x="525" y="280" width="89.75" height="150" as="geometry" />
        </mxCell>
        <mxCell id="YnLpZKvqTVDdp9C1WOKk-4" value="OBJECT TYPE : TABLE&lt;div&gt;LOAD:&amp;nbsp; &amp;nbsp; &amp;nbsp; &amp;nbsp; &amp;nbsp; &amp;nbsp; &amp;nbsp; &amp;nbsp; &amp;nbsp; &amp;nbsp; &amp;nbsp; &amp;nbsp; &amp;nbsp;&lt;/div&gt;&lt;div&gt;BATCH PROCESSING&lt;/div&gt;&lt;div&gt;FULL LOAD&lt;/div&gt;&lt;div&gt;TRUNCATE AND INSERT&lt;/div&gt;&lt;div&gt;&lt;br&gt;&lt;/div&gt;&lt;div&gt;NO TRANSFORAMTIONS&lt;/div&gt;&lt;div&gt;DATA MODEL: NONE (AS IS)&lt;/div&gt;&lt;div&gt;&lt;br&gt;&lt;/div&gt;" style="rounded=0;whiteSpace=wrap;html=1;fontSize=8;" vertex="1" parent="1">
          <mxGeometry x="224.25" y="270" width="96.5" height="160" as="geometry" />
        </mxCell>
        <mxCell id="YnLpZKvqTVDdp9C1WOKk-5" style="edgeStyle=orthogonalEdgeStyle;rounded=0;orthogonalLoop=1;jettySize=auto;html=1;exitX=0.5;exitY=1;exitDx=0;exitDy=0;" edge="1" parent="1" source="YnLpZKvqTVDdp9C1WOKk-4" target="YnLpZKvqTVDdp9C1WOKk-4">
          <mxGeometry relative="1" as="geometry" />
        </mxCell>
        <mxCell id="YnLpZKvqTVDdp9C1WOKk-6" value="" style="image;aspect=fixed;html=1;points=[];align=center;fontSize=12;image=img/lib/azure2/power_platform/PowerBI.svg;" vertex="1" parent="1">
          <mxGeometry x="747" y="182" width="36" height="48" as="geometry" />
        </mxCell>
        <mxCell id="YnLpZKvqTVDdp9C1WOKk-7" value="" style="sketch=0;points=[[0,0,0],[0.25,0,0],[0.5,0,0],[0.75,0,0],[1,0,0],[0,1,0],[0.25,1,0],[0.5,1,0],[0.75,1,0],[1,1,0],[0,0.25,0],[0,0.5,0],[0,0.75,0],[1,0.25,0],[1,0.5,0],[1,0.75,0]];outlineConnect=0;fontColor=#232F3E;fillColor=#01A88D;strokeColor=#ffffff;dashed=0;verticalLabelPosition=bottom;verticalAlign=top;align=center;html=1;fontSize=12;fontStyle=0;aspect=fixed;shape=mxgraph.aws4.resourceIcon;resIcon=mxgraph.aws4.machine_learning;" vertex="1" parent="1">
          <mxGeometry x="741" y="350" width="48" height="48" as="geometry" />
        </mxCell>
        <mxCell id="YnLpZKvqTVDdp9C1WOKk-8" value="POWER BI" style="rounded=0;whiteSpace=wrap;html=1;strokeColor=none;" vertex="1" parent="1">
          <mxGeometry x="724.25" y="240" width="81.5" height="30" as="geometry" />
        </mxCell>
        <mxCell id="YnLpZKvqTVDdp9C1WOKk-9" value="MACHINE&lt;div&gt;LEARNING&lt;/div&gt;" style="rounded=0;whiteSpace=wrap;html=1;strokeColor=none;" vertex="1" parent="1">
          <mxGeometry x="726" y="410" width="78" height="40" as="geometry" />
        </mxCell>
        <mxCell id="YnLpZKvqTVDdp9C1WOKk-14" value="" style="shape=image;verticalLabelPosition=bottom;labelBackgroundColor=default;verticalAlign=top;aspect=fixed;imageAspect=0;image=data:image/png,iVBORw0KGgoAAAANSUhEUgAAAgAAAAIACAYAAAD0eNT6AAAAAXNSR0IArs4c6QAAIABJREFUeAHsvWeUHFeWJsYxOzt7ZjRanZV0tDqzu5rVztHurKSRZqQfo53ZIbIA0HuC3nvT7CabPU3TNGB30wGVBVsgPAreAwXvPVAACq7gbcEbwtE34eLFJ95IBJEIpInIeOG/OqdOmogM88V99/vefffdd911/CMCDgSub8Sf5urx7zrm8X/XNaBjXR73d2jAS7kGvJOrR31dAwbk8hiTy2Nqh3osyOXRmstjay6P9lweR3N5fHH5/7tcHqjh/6uiY9jHOmUdvx67cnmsz+Wx6vK5Z+TymFCXx/BcHv1yDfg4l8cbuQa8kKvHgx2645aO9fj7uu74P6//FH9+U2/8c8ft8iMRIAJEgAgQgXQjIOTXqRv+sq4eneoa8HhdPd6uy6NXrgETO+SxIpfHvlwe39dA2LWQfJS/+SaXx95cPVpy9Zhel8eQy8Lh1VweXTr0wH/p2BP/tktX/FG6LYJ3RwSIABEgAqlB4B964F937I7rc3k8W5fHR7k8Rktv+YfPx3J5mBkgd53CQvA6kctjgwiFDnn0rcvj57kG3NUhj7++qTf+LDWGwxshAkSACBCB+CMgPVMJaVsh7np8kKvH2MthcenZ6iRAHqs6nqdlCKRDHuNy9fiNPJNcD/xN5+74k/hbEq+QCBABIkAEYouAjMXX5XFrhzzeujzuLmPtF0n0sRc6Ej04mMtjngyz1OXxfF0P/J3kV8TW2HhhRIAIEAEiEA0C1/fA/9Ihj3suh+7n5epxhkQfe6L3GiVRVv5BAyZKUmWHPG4XkReNxfGsRIAIEAEiEDoCMn6ca0DnXB5d6/KYS7JPHdF7FQYyy2HWD4Lv/Q553Hx9Pf770I2SJyQCRIAIEAH9CHTujr+oy+ORuno0/pBEtjmXh8HefeZJv6JI6JDHfsktqKvHz2RKZpcJ+AP9lskjEgEiQASIgFYEJBtfppTJnHlx5CR7kr0GG/j2cu2DrlKf4fqu+GOtRsuDEQEiQASIgHcEOnfH/9ihAQ/l8hh0eT59xd6dBjLg8atn6Kcdo3O5BizK1ePNDvX4265d8fveLZe/IAJEgAgQAU8ISDhWCsbI1K+6PNbl8pDkrrQTDu8vzs9YkkbrMT5Xj2ckodSTQXNnIkAEiAARKI+A9PJzDXjScrKFcrckxDgTIq9tWy6PT0SoMn+gfLvmFiJABIhASQQ69MT/VlePX16upsdePkk1qaLvVId6NNXV497/8in+m5LGzi+JABEgAplGAPg9KdgiPadcHjsZ1uewRgpt4FxdHs2Ss0IxkGlvx5snAkRAEOjQgP8sc/KZwEfCTyHhV4panMvlMeOHmSqPcW0D+kIiQAQyg8D1Dfh/6urR7XLJ1kpOktsY+s+CDXxvrStRj5uYM5AZN8gbJQLZQSDXDf8re/rs5Wesl+9ZvNTlcTyXR/fru+N/z4534J0SASKQOgT+/mP8d7IYSy6PlVwS1x35d2wA7mwEHhkMvDDSxOsTTHRtNtF9jonPligMW6EwukWheYPC7DaFhdsUWvYorNunsOWgYf1vP2yg/fiV/8/PGjh08srn4m3F73ccLvzePo68btxvYPUeheU7C+eau1lh2gaFya2F65Dr6bdYIT/XxG9nmHhrsolXx5p4foSJR4cAd/cDOvVwd+8UB9fgtCHXgBeYL5A618gbIgLpREBCmLkG3JaTRVfyOE+nfsWp39YXeKrJxC8nmvh0ton+SxQmrFUQUl27V2HXUQMnzhgQwk7bvwiNTQcMS0iIcBm/VmHgEoVus028Ncm0xE6X/kCnnlfwou38iIUsN91PlqJOp9fgXREBIpBoBC4vn/vrXB5Hs+q4paf70EDgtfGFHvvIVQpz2hTWtysc+Dx9pB6USNlzzLAE0cw2haYVCt3mmPjlBBNPDDNxS+8fSdFzeD0ldrlK1rbo0hV/lGiHwYsnAkQg2Qj87QD8sw71uLtDHnOyVJHvxp7A000m3m82MXhZIRQvvdujp0nyQYmC4uNKNGHlLoUJrQq9Fph4c3JBHNyQrejBsVweb1zfA/8y2V6EV08EiECiEGjdh3/z21mYV9eAz1PSqyrbm5Sw9BsTTWuce9pGhbYDBo6nNExfTLJJfC/DJ1sPGVbURYYX3plq4vGhJjqnOwfh21wDerIEcaJcKC+WCCQPAQD/fvNRjHhkCMw0Ev99A2CNRw9YojBvi8LeY+zRJ1EIOK/52CkDrXsVJrUqK5nyxVEmbu6VuqGES7k8Rnfsgf+UPM/CKyYCRCC2CAD4zwDGH/0SSjLU00D+nXsWsuwle336RoWdR0n2TuJM82eJ4khuhgwjSELms8NTEylQUlOgrh5/FVuHwgsjAkQg/ggA+AsAAwAYhgKeG5Fc8pfkMZlSJ2P2K3YpHD1Fwk8zwddyb4dPGViyXUEiQGIrMmsjwWJXdchjnFTajL+n4RUSASIQGwQA/DmAYUL8uPw3f3uynKGEeF8bZ2LQUmUljB1jgl7qphbWQvJefnPirGHVV2haqfBPE0zcmswZCBIRGHr9p/jz2DgYXggRIALxQwDAnwB4A8C3NvHbrz8dG28BUNdQyMyXrPCl2xUz8lNYS8ALeQexrwwbSNGlAYsVXh5lQoaREhQh+L4uj486foL/Nn6eh1dEBIhAZAgA+H0AzwA4YRN+8eu5i4hlJvVdjbCm4klyl8wdD8Lp85jEtZwNSG2HKesU3pli4p5+iREDp3P1eOX6rvjDyBwOT0wEiEA8EADw1wBWFRO+8/2xL+Pj3B4fBvRZZFrj+GmtmleOcPh9fMWIiIH5bQbqZys8MdREXdwXcWrA5o71+Pt4eCFeBREgAqEicDnc3xXARSfhOz8f/iI6ASC18X82Dhiz1sTOY4q9fIb2Y20Dh08a2H7QwKItBnrNV3huuAmx4ZgOFch03mH/0Bv/Q6jOhycjAkQgOgQAdAZwyEn05T5fuIRQnZiM5782HmjeBJz40sTZr0n87P3Ht/df6tlI7YEdhwys221g2TYDfRcoPNNkQmw7hmLgiw71eO464Pei80o8MxEgAoEiAODPLk/rM8uRfbnvXxodrOMSx/jqeGDqJuDMd8CFiyT+UsTC7xImBM4Y2HWkIARadxtY0GYgP0fh0cFm7IRAh3oskDU9AnVCPDgRIALhIwCgI4DD5Qi+2vfTNwcjAJ4ZAYxfB5y+PO/gPIk/1iFuCpDaBIhMQ5WIQOseAyIE5H/GeoX3p5q4vU8wbavGSMPXuTyeZTQgfB/NMxIB7QgA+EMAMtavqpF8pe2XDODJJj2OqssAoP8yoP3UlTNevGTii28Y6ifB1kawScFNClBtO3hFBIgQWL3TwJClCi+OjM8QQV0ec/+hB/61dofEAxIBIhAOAj8U8/l31TL8r1Bw9Xd7T6Lm6miyUttvZgLrDwKqaABCKgx+/R2JvxqBHTppYOcRAxv3F1bCW7BVYdoGhbGrFYYsV+i70LSWzf1gmom3Jhf+pRDST8cU/l8ebVorGMoqhvL/8CDggYGF/wcHFWoo2NuEiOzfyaustifHlNUPP55lWivwSYGl0S0KU9crzNussGynsormbD9sYP+JdJN4tWflZrskC27ef7UQEDEwr81A1+bYFB06WVePTuF4K56FCBABbQgAuBvA19Vp3dse248D0oN3G16UqMGkDcDX564+j2kC336vcDLjWe2ytK3UpF+2o0DoTSsUeswvkK2Q76NDahddbp9REPt16glrbrxcv9yHiAe5L7k/ES5yv1sOGpBkOTeEmdZ9RCxt2HutEFi1w0C/hQqPDIo8V0Dl8vgt6wZoc808EBEIDgEAfwDgEwBF/eyrydfvp6++B3otBG4qs6LarX2AbnOBbcdKn0nG+U9/mQ3HLwQnRLdwW6HHLCQovWnpbd+YrEpyrkWfV0EhNfcFD8FF8JHIggiE9oxEEqTk8O4jV+cH2HkC8jquReGFEZHXFljOIYHg/DaPTAR8IwDgXwGYX5p29X/77Xlg5V5g5Bpg4HJgXCuwuh2QaYOl/iTc/2VKx/l3HTUwf6uyFhv69XQTEnK/tz/iXxAm5gVrbu8La6W+d6aaaFxkYtpGhbaDBtJYBEryA7aUGBawxUDzOmWtbxFhXYGjHerxt74dFQ9ABIiAXgRkyd6jX+LIqn3AzC3Akl3A7s8BCbXH4e/78yZOfpH8Xv/R04WQvYSxhZBk1bgElYENrBfvtdfvd38ZYpDhBRlakGEFibCkpRz03qMG1hfNFrAFgP06d5OBNyZEVmDod3X1uFev9+LRiAARqBmBT+bivedHwijlVLv0B0atAaSefxR/0utPana/LP6yZq/CyFUK7zabeGQw0KmH+/yHUs+D3wWLn9j7LyaY1pK+siiULPGbxPwBa+ioQjRAxMDsjQZeHxfJzAGzrgHvcapgzS6bPyQC/hH4uwb8i6easM4NqUhv6dDZcCVA0nr9B08a1tizZLinYD341PT23dh3uX1EsIntfzjTxIRWha0HkyUI9h27UkTIjgA4X2euN/DK6PCTBesaMKDLBPyBf0/GIxABIuAJAcnKfWIY2ss5vlLf39kIyMI+Qf/JsMNX38Z/ap9k4DevV9bUtieGRdKTIklHkINw3wDg3ammFdmRBM24RwhkyuDGfdfOFHAKgUlrFJ4cGq4Q6JDHuL8dgH/myXlxZyJABGpHQJbv/XAWWkuRfLXvnhtx9Tx83WJACvqc/iqeTlUSx1bvUZAevkxN68xwPgVIvlALQSIEktchq/rFURDITAGrkuDlKoJO8rc/r91loP8ihbvCXZ54lkQja/do/CURIAKuEJBpfofPYly5KXjVBIBsn7tNN+0XjnfuQvwS/SQxTBy7OHgm6wU7/u7G9uK+jxSsEnEoIlHEohBvnASBNSRQIUHQFgIrtht4b0qIUa0GLLq+K/7YlRPjTkSACHhHAMAfAZg+Yb0/Ry7L6+r++/Z38Qn5SzW6wcuUNbc89uuyRxACjzsJx+n67h8A5OeaaNkTH/s+9LmB9SWKB9nkX/w6bZ3CE2ENC9RjOocDvPt1/oIIVEUAwO/9UNp3mBD3G5P9CQCZR6xrVoCM98chy1/G8yXJS3pvJH1/9hEnAo7TtUjuQLfZpjUzJOqogNQM2NRePS9AxIAMC8gKhJ3DKTw1umtX/H5Vh8YdiAARcI/ADwLgA7vXrmNRniNf2Eer/VUp4MxX0fWMpIyqkL5k7HM8n6QfpliQmQVSB6LtQHRDBDJNtdR6AsURgOL3szYYeCycZYj7ufds3JMIEIGKCPywjO9TxTT92FD/zn7/6eIjen8v8/ujSPaTRL55WxTemmSG1aNhohyHKcragESbXhhpYvzaaGoOSI7ClgPuIgEiBtbsMvDRjOBzAzrk8dOKTo0biQARqI4AgOsBXFXG57UJ/gXAN47FebxIgEuGiVMh1/KXUrsDlijcP9D/vYfZU+S5svO8ZA0MWS2xdW+4UTERxc4lhot7/qXey/oCd/YN9NkYuXrcVN3DcQ8iQARKIgDgXwI45CTnoSv9NdynhzuP6P6zYSBU8l+7t5DBL9nZJFNikBQbkCWVZfaJhOnDyBeQSIBXEbB4q4HnRwRaN+Ds9Q34DyWdG78kAkSgMgIASubrS/i+rqF2Mhi9xj3hF+9phf1D6PmLM5vTpvDKmECdEwUFQ/uB28DDg2AVHDoSRkniMwa2ehgOkMiAJAi+OyW4dlZXj0039cY/r+zpuJUIEIGrEHCO+xcTsbz/cHZtAkBWqPv+qgEF55FLf5aEv6CX8BXin9mm8NSw4BxSUnqQpa5Tytre2tvEXY0mHhig8OgghaeHGXhppIGfjb6Efxp3Cb+adBHvXP7/YOpF/Ka58P/baRfRbeaFH/8b5lxAz6L/4m0fTb/w4+/k9/bx3p18Eb8cfwmvjrmEl0caeHaYgceHKDw4UOGefiZu68Mljks9N/nuns9gLVoU9NoE0oa8JAbawwN9Fyh08tGpKHff8n2HPD69yrnxAxEgAuURAPDvAXxbmooL38oY/qMekwGFQDZeM6BQ6SyFbTLV7+zXwY5rCvE/mUHilymZQpxC6E8OURax/mL8Jbw/5SI+mX4Bfeadx+BF5zFi2TmMWp6c/yGLz6Pv/POon3kBIkTemHAJr4y6hGeGGXhwgIw/m5lcWOnufsDQ5QoyjS+ooYHjpw1sclE62CZ/+3X0SgU/BcYqiADVoQH/WN7jcQsRIAI/IgBgSnVaBk58BTzV5C4ScEtvYMVeN0e9dp8g6/qv3KXw4qh09/hv6mXi/v7K6jG/Pu6SRYg95lzAoEXnE0XqQQiQoUvOoffc85AIhUQXXhhh4OGBCrf2SbdNSIGhyeuCqzQoAqPSksI26TtfJ69VEF9Rgcxr3Xbwpt74sx+dHN8QASJwLQKXs/6vZeEy3/zuAjBwOSoq93eagcM1zvv/7nszkJ6KVOt7a3K6ivbc3te0evE/H3MJXadcRMPsCxiyhCRfq3BoWnq1OHi2ybCGGiRqEgBBRXLMp5tMawXKIKIBB064nx5YLARkdcGAZgh0v9bj8RsiQAQsBGSRHwAbynB9xa9FCCzZDQxeAXSfBzQuAaa1ASe+rvizihtlYR/djunYacMaCw2olxGKExcCurufaY2/S49exswlTF8r0fF33oY2ZDhEhkZEZL0yqjCkcEOCF3aSWgLvN5uQdSt0t7edh2sXAbf10S60Ll5fj/9Id08EiEAJBKol/lVka80bZdxfd9Lf8p0Kjw1JXmhXwtGSbCcJdpI4Nzxh4/GZEBjLzqHf/IIoeHGEYSVKJq0k9G19YRUU0ioCzhhoc1kyuDgKIO+nrNWfE9ChHgtKuD5+RQSyjQCAPwRwUDOP13w4neP+R08bVtnUpIRu7+hr4rnhhpX9Lj3NkQlKvssE2bt8HsOWnLNmPcisBUk8TIr9vTbOxM4j+qIBMgVxXZVlhJ3kb3+WxEBJHtY65MICQdkmO979tQgA6FIzW2v+4QWNof91++Kf3X9LLxPPNRn4zbSLDOW7JNckCg3JKZDpjq+MvmRFCLSSmuaaCnc0AjM26Zt5s/tIbUMBIgT6zFdaBUBdHquv9YD8hghkGAEAqzXzeE2HMyEL/OjpfUiWc0DTivw5pAbgvv7Kms+en3UBoxjSz2T+Qv8F560ojwzvxLXS5IczTUgEze+wgNQH2OhyCWG791/8+uZEvUN3nBaYYbLjrV+NAID/tya2DuBH353zn/h37JRh1USPUw+rYw9YGfqSODZoMRP2ktiDD/KaJTrw8YwLkPwBmbYZJ9uVabI7j/oXAQdrnBUgQqBlp/aVBOdd7QX5iQhkFAEAYwPgcs+HlMS/U1/4czQHPjfw6tiYONAGWGO/b08k6QdJnmk7tuR8yFCB5IHEJTIglQTXaFhkqJYqgXYkQKYHdta4JkfHHvhPGXX5vG0iUEAAwJ8C+N4zWwfwA7+9/x1HDDw+NHryl/D+mxMuYeBC9vTTRs5h349EBj5ovmiVPI46iVCm5S3Z7i8vwE8UQIRA/Wx9+QAdGvAheYAIZBoBAPcFwOWeD2n1/n0s9LPloIEu/TVnC3tIrOrcA1ZNfKkqFzZJ8Hze5vEnFa+Bi87jF+MuRVqlUHrgs9v8iYBapwWKAJDFgx4epEfkd8jjcNeu+P1MEwBvPtsIAJjgma0D+MG5C7WP/e84bOD+gdGQ/52NplVCVmrPJ5VYeN0JExDLzlnFnx4ZpBBFrYFOPWGtlllrYuC+Y7XPCBARIFMDteVIdEcu2wzAu88sAgD+GMA3AfC550N+8U1tvQoJ+z8QAfk/OlhZ47Sco58w8kzZNMPG+efx0ggj9BoDN/YEFtc4HHDijIF1e/yJgOdH6IkC1OXRK7MEwBvPNgI/lP29zTNTB/ADQ6GmaUaytOmzw/U4Arc9Cul19Zh9gb39lBFp0qMgAxaet8oSay+aU2EYTMppr2+vTbhvP+hPAIxv0RYF2JptFuDdZxYBAN0D4HPPh/xdDVP/ZF7xO1PDI38SP3v6SRAJYQuBhwcB7ce9z9zZ72NKoD0r4NHBWtq/eX03/E+ZJQHeeHYRALC8mK1lxb6xrcAnc4A3pwAfzwFGrQH2ny7eS//7L2sI/w9Zrq0HUHE8UTL6G+awx58E8uM1XhFpIgSeaTIq2rbbqFe1/V6fYEIEuZecgOMahgEaF2jyAfV4MLsswDvPJAKXa/9/J3R+/Cvg3WmVk+jemAwcOquf/KXy30mPc/83tAc/P1qKscj8fY7xXyEVEmzysKifdcFawrgaifvdPrrF+1CAn5oAEgVYuk1P7kNdPbplkgR409lFAMD/JXTedgSQut9uHMCtfYA1+/WKAK9L/kpZ0qeGaQn9lb7nBuCFEQYGM6ufeQ4pyXOQ5YvfmHAp0KJCN/cCZCqulyjALh/rA9jDAM80afAF9ZieXSbgnWcSgR86/s8dOAMIqbshf3sfqa2/64Q+EfD9eW/T/5pWaAr7lUhukmV362cy3M+efvJ6+m6emQwLPDAguPbzywne2rLkDthEXutrdx2FgRqwJ5MkwJvOLgIK+OT5kd7I3xYBTwwDJHNfx9+3v3MfOmw/YeD2vrVds33t5V4lyW/QIs7ld0Mk3Ce5AkGiAa+Pu4RcQzDtaNE29+358En/AkBTTYBLXbrij7LLBrzzzCEwbROWliNDN9/P266D/oEvv3XvMHrN1xDuc/T8pbzqL8df4lh/SsLdFCfuxMknMy7g5t7625NMy3U7DCCJgLX2/O3fLdmiJ9GRMwEyR4HZvuE3p+CkG6Ivt89bU/QIALcFgGTO/22ae/9C/h9Nu8ixbpJ/Jm1AliO+s69+EbBsp3tRv263fxGgY8nvTt3wl9lmBN59phC4fyAuliN3N99L4qCOv7Nfu3MWkmXs5rrc7iO1+2XFNfYY3fUYiVM6cZJhr3v66RUBUp/DbRRgvc+KgBIJuKufhuGMHvibTBEAbzbbCNzQE8otWZbb7/wl/xLg9FfuMoef1pHtezn8L1P8enBuP8UPIx+WDQxafB5dPtMnsGWtgH0uiwNt2Os/AvDQQP8CpkMD/jHbjMC7zxQC5Ujdy/ffnNMgAFysALjziKFt0RMJ+3efxZ4/e/Tp7NHX+lxl2qssbOWl/Vfad1Kru8jexn3+BYCOioB1DeiYKQLgzWYbgUqN1+22sASAzvD/ryZxzL9WkuDv0i0aes29oG1RobenuBsGoADINg/x7iNCwC3JV9ovLAHw1mQ9PZPHhihm+zPszaGPCjYgBYMqtXm322S6rps8AAqAiAiAp802Am4bcqX9whIAsuBIpetws01C//3mc54/e/Hp7sX7fb5SJ+AuTUMBslR3NRFAAZBtHuLdR4SAG9Kstk8YAkCm/wl5V7uWatufH26w51eh5+eXOPj79AiLrlMu+m5v0h7nba6eB0ABEBEB8LTZRqAaYbrZHoYAkPXG3VxLtX3yTPyjAKIAcmUDw5eew409/YvuppUUANlmGd59bBGoRphutochAJbv9C8AbugJSGiTvVRiQBtwZwOPD/Hf7votpgCILQHwwrKNgBuCr7ZPGAJAwojVrqPa9vv6K5I/e7+0AQ828OoY/8mA9XOrzwTgEEC2eYh3HxEC1UjTzfYwBMCMTf4FwEMDKQDY83XX8yVOBZx+IQsGOdbN8Pr541kUABG5d56WCFRGwGtjLrV/GAJg4Tb/AkCymunYSYC0Afc28PJI/4vs9FxAAVDZC3MrEYgIgVKE7vW7MARAy27/AqAuDwxd4t75kSiIVdZt4P7+/tvdoKXMAYjIvfO0RKAyAl7JvtT+YQiArQf990Tk2j+YygqAWSc13r87YTdg4XktpbfHrqYAqOyFuZUIRIRAKUL3+l0YAuDED2uG39zL/5SkB5gIyGEQD0lwWRYLr2lIABRfsmIXBUBE7p2nJQKVEfBK9qX2D0MASCWx50boKQX80TRGAbJMbLz36hGAgYvOQ5bKLtXevXwnw24HPmclwMpemFuJQEQIeGnM5fYNSwBINnG5a/Dy/W19TAxZzHLAJMLqRJhVjJ7QMP9f2qSU765WBli2cxpgRATA02YbAS/EWW7fsATAnDb/CUn2PTw11OCCQAyFczikhA28NVFPCWBpa25qAFAAZJuDePcRImATop/XsASArAegozSpfa+vjr1EAihBAFnt9fK+z+HTGfqWApZ2tmhb9fF/CoAICYCnzjYCNhn6eQ1LAIijeFPTksD2/f6cIoAiiCLIsoGPp1/QMu5vt627+wFHT1cf/6cAyDYH8e4jRMBurH5ewxQAS7brGwaw71mKnYziGgEUAhkWAh9O19vzl7bVuKh6ASAhfwqACAmAp842AjYJ+nkNUwCIs3h8qJ5kwOJ7fmGEgRFLmRTGMHj2bOC9yRe1zPcvbk8yg2DHEXe9fwqAbHMQ7z5CBIobba3vwxYAU9bpjwLIvctiQf0XcHYARUA2REDT0nN4frieAltO3/GbGe57/xQAERIAT51tBJwNt5bPYQuAEz+EDV8YqT8KIPcuSwb/upl1AigC0i0CGuefxz39gmlDUrBr51H3vX8KgGxzEO8+QgRqIXznb8IWAOIwlu5Q2sOWxff14ggDw7huAPMC0pYXsOwcfjXpotZkv+J2I+/7LXaX+S/t2P5nHYAISYCnzi4CzsZby+coBIA4jo9mBtODsTG4pbeJrlMusl5A2kgwo/fTa+4FPDAgmOEzu808OgQ4cuoKsdsEX+2VAiC7HMQ7jxABu+H6eY1KABw6aeChQf7LlVa794cGKvSZx9wADgskc1hAql6+MsoINGImbahTT2DtXu+9fxEHFAARkgBPnV0EqpGfm+1RCQBxHLLQSOeewYuAjg2wnKjUSCcRJpMIs/bcJMlPqvrd1DPYSJntI4Yur438KQCyyz+884gRsBuvn9coBYA4jwmtwYY1i7Hp2AN4aaSBgQspBLJGqEm5X5lkzxSUAAAgAElEQVTO+s6ki7i1TzjEL+2ja7O3rH9pt8X/jABETAQ8fTYRKCa3Wt9HLQDEkTTMC8/ZCU4yz/knoygEkkKKWbjOQo//Em7tHW5beHGkiaM1jPtTAGSTc3jXMUKgVtIv/l0cBMCJMwbebw7X8QkGnXrAmkvdc84FDg1kNLkuanEh0SgpaX1Lr/Dt/8lhJtqPX92bLyZ2t+8ZAYgRKfBSsoNAMZHX+j4OAkAczfEzBt6NQATYuEkhIQm9Sk8salLg+dP/DER0PjfcgOSn2DYY5qss9bvL43z/coKAAiA7nMM7jRECOhxGXASAOJdjp6MVAYKn9MReHXMJ/VhVkEJIc1REMvplHv/dARXxcesPnhhmei72U4785XsKgBiRAi8lOwi4bfCV9ouTABBnIpUCZSGSStcc1jZx1L8cf4lJg5qJMEsRDokofTT9Ap4eZkCSUMOy3XLneWWMif0n/If9iwUBBUB2OId3GiMEyjVyL9/HTQDYjmXkKmWN0Xu5l6D2rcsDDw9SeG/KRUgvLksExnv1PhwhmfxC+s80GYFW7fNq75Jnc8xnwp/dPotfKQBiRAq8lOwg4NUBlNo/rgJAHIwsH3xXY/S9pmLcpBf36GBlhXL7zacYoEAoCIQhS87jg+aLeLbJwE0RJPQV26jzvcx6aVpZ+zz/YrIv9Z4CIDucwzuNEQLOhl7L5zgLAHE2O48YkKlKtdxbGL+5q9HEK6MvodvMC1ySOENDBSOXn4OU5/2ncZesEr0SJQrD3rye497PgOU7gyN/aaMUADEiBV5KdhDw6gxK7R93ASAORpIDZZES6cmUuoe4fHdDD+CJoYZVwU3IQUiCPeT0YPDZgvPW+hIvjDBCn69fi42/NdnE3mN6x/sZAcgOv/BOY45ALU7B+ZskCADb6bTuVZC5y857iOtnEQQPDlDWrAKJEHCKYYLEwLJz1hoSMjVUpuvdEWJlPr/2fGsfYHRLsL1+u03KKyMAMScKXl46EfDrKOT3SRIA4mxktTKZJRDGGgI68C0+huQPiCD42ehL+GDqRYtgRixLECmmOKLRf8F5fDj9Al4fewmPD1a4MYQ1KoptQ9f7t6foneJXTPTl3lMApJNfeFcxR0CH00iaALCd0OYDBl4bl5xoQLlnJYVgZLqh9DLfnngR+VkXMIzFiAIbOhHBJatD/qb5Il4fdwmPD1G4OeTyu+Vswc/3Dw4C5m0Jr9dvt0N5pQCIOVHw8tKJgB+HYf82qQLAdkDTNqpQlhW28QrltQG4s9G0eqKyZoEUj/lkxgXIGDQjBu4iJrLyY/2sC3hv8kVrCOapYQa6fBafqaW67Oi2PsDgpcqKjNltIuxXCoB08gvvKuYI6HAiSRcA4uyOnjYgdQPujNmUQR3Px3kMGUawxMEQhVdGXbKiBtKbzc++AAljD89A9EBEkNTQl3K6Mt9eBNJrYy5ZxXaE5CX3wolb2j536gnUzzWxT0Mtf7+CgQIg5kTBy0snAjqcWhoEgO3ADnxuYMBShTsyIAQqPXtZQ/6efiYeHaTwXJOBV8cWhILkHQhhSs+499zz+Gzh+VgUNhq25BwGLDxvheYbZl/AJ9Mv4NfNF/HO5IvWmLws4SyheiF3a7W8iOrnV8I8rG1C/B/ONLH1UPDZ/Xa7qvZKAZBOfuFdxRwBHU4nTQLAdlQHTxoYvCwbEQEdNiDHuKEncFufgnCQRMVHBhX+HxusrJ61lLKV/xeGGxBClv9XRhlWeF3WTpBaCPb38vr00ML+8hshb/t4Dw0qEPkdfc1CwZwMk7mXZydJrx/PMrH9cHyI325vFAAxJwpeXjoR8OJAyu2bRgFgOyZZ53xCq8JjQ5KfLFju+fH7dIf7ZUpft9kmdsSQ+O12RgGQTn7hXcUcAR3OP80CwHZQssDQvM0Kr441EdeKbTqeJY+RHjEgolXm8h8OoHa/3S50vVIAxJwoeHnpRECHw8+CACh2dDJ9sMd8MxMJgzrsg8cIT1RImF+q9y3cpqxVMYvtNs7vKQDSyS+8q5gjoMM5Z00A2I5UVkVr3qDwiwkmJLFKB5Y8BnGsxQaeHW5i2AoVi4x+u314eaUAiDlR8PLSiUAtzsb5m6wKgGIH136ikCvw+gQz9usNOJ8fPydTdDw6BFZFy00H4pfUV9w23LynAEgnv/CuYo6ADudPAXC1A5Z51ZI4+NMxzBfQYV88xhWBct+AQkLfmr3RVOxzQ+a17EMBEHOi4OWlEwEdzpUC4GoBUOwAtx0qTCd8ZQyHCXTYWtaOIQmnsniV5Jy07E4X6Re3EwqAdPIL7yrmCOhwqBQA5QVAsZOTbGxJzhJn/sjgK706Hc+Ax0gPnjf3AmQoSTL44zx1r9i2/b6nAIg5UfDy0omADuKgAHAnAJxOcstBw3LykrV9S+/0EJgOm8rSMeoagKebCr18EYhSltppK2n/TAGQTn7hXcUcAR2OlgLAv8OW6MDS7QoDliir93d7XwoCHbYZx2PIMsEvjioQ/qy25Gbu6xQlFAAxJwpeXjoR0OEgKQD8C4BSzlQiBJJMKFXcpIcoPUUdz4vHCBfHu/sVQvqDlios2xHtqnul7CwO31EApJNfeFcxR0AHGVAABCMAnI5ZZhfMaVPot1jhzcmmtYQxRUG4ZF6tvdzzGfDaOBMN801MWaditeCO057i9JkCIOZEwctLJwLVHJqb7RQA4QiAUg5bihGtb1dWpECSCyV5LAtLGruxyyD36dwDkHn47zebkJ797DaFXUejs4NStpGk7ygA0skvvKuYI6DDSVIAxM/xy4pv87cqjFylkJ9r4pcTTTw+VFbPi1ePWYf9BXUMIfmHBhZ69LKK3tDlCjPbFDbuN3Asg4l6QQoKCoCYEwUvL50I6HCeFADxEwCVnLX0VJftLEQN+i408V6ziZdHF6Ym3tYnOwJBkvEeHAS8ONK0hlQa5hWm3kkm/taDJPlKNqR7GwVAOvmFdxVzBCgAkkXeuh1vqeMdOWVYBLh8p8KMTQojVimIUPj19MIQg2SwS3Ga+wcAt/VFbFZHlKmU9/YvhOafH2FaY/ESohdilzr5k9cpLNle6MEf+JzPvdSzj+o7CoCYEwUvL50IUACQCHQ4fSFUKVqzod3Ail0K87YoTNtQ+J/Yqqx6B1LYZlSLssbMZdxc/vssKEyHk/yFngsK4+n2tuErr/xu3Jorx5NEyKU7FNbuLSTZtR83ErXynQ6803YMCoB08gvvKuYIUABQAKSNTHg/ybNpCoCYEwUvL50IUAAkz1mS4PjM0mYDFADp5BfeVcwRoAAgmaSNTHg/ybNpCoCYEwUvL50IUAAkz1mS4PjM0mYDFADp5BfeVcwRoAAgmaSNTHg/ybNpCoCYEwUvL50IUAAkz1mS4PjM0mYDFADp5BfeVcwRoAAgmaSNTHg/ybNpCoCYEwUvL50IUAAkz1mS4PjM0mYDFADp5BfeVcwR0CEAzn4H33+nv6RTT5tT5/3Qpt3awIa9Blp3+/t/cKDpe7nsugZ0jLnL5uURAX0I6BAAh8765n9QAJAs3JIF90ufrazf44/8RTzoWAWTAkAft/BICUBAhwDYfpwCgKSUPlLiMw3vmfrt/cvvb+jpfyErCoAEkBYvUR8COgTAvO0UACSL8MiCWKcL6+On/ff+F7QZvsP/4gspAPRxC4+UAAR0CIB+SykASErpIiU+z/Ce56HP/QuA4csVBUAC+IaXGDMEdAiAV8dTAJAwwiMMYp0urPcd8y8APprhPwGQEYCYkRMvJ3gEdAiATj2Ar8/5EwFMAkyXUydJ83m6tYGdh/0LgEcHUwAEzxY8Q+oQ0CEA5BgLd1AAuHV43I/kSBu4YgOb9vkTAAs3G6jL+08AZAQgdfTGG6qGgC4B8PZUCgA69StOnVgQCzc2oCMBMD9Hz/g/BUA1tuD21CGgSwCIAj/yRe0igEMAJAw3hMF90mUn7cf99f7X7jJw72d6ev8UAKmjN95QNQR0CQA5TuMSCgASVLoIis8z2Oe57YA/AdCkKfvf9oOcBliNMbg9VQjYhq/j9aZewKlvahMBjAAE62hJZMQ3bjZghf99VABcu9uAruQ/2/9RAKSK3ngz1RCwDV/Xa/d5FABxc7S8HpJ/HG1g71F/vf8Bi/WN/dv+jwKgGmNwe6oQsA1f12vHBqD9lHcRwAgASSqOJMVrCsYuT5w14Cf7f9UOA/f00zf2b/s/CoBU0RtvphoCtuHrfH1uJHBJeRMBFADBOFoSGHGNow20+yz+8+4UPfP+nX6PAqAaY3B7qhBwNgBdn0espgCIo+PlNVEQxMEGNrXXHv6fsEZJzX4tpX+d/o4CIFX0xpuphoCzAej63LknsPOEexHACACJKQ7ExGsI3g73+Zj6t2yb3ml/Tn9HAVCNMbg9VQg4G4DOz136A2e+cycCKACCd7wkN2IctQ0cP2NgQ42Z/zLn/6WRwYT+bb9HAZAqeuPNVEPANvygXl+bABgu8gEoAEhOUZMTzx+8De44VHvo/zfTgyV/8YEUANUYg9tThUBQxF983I9mA6ZZORJAARC88yXBEeMobeDwSQPrdtcmAPovUtrq/Rf7Jud7CoBU0RtvphoCzgYQ1OfeiygAonS+PDfJP0obkND/xhoX/Rm+XEGmFwflm4qPSwFQjTG4PVUIFBt/0O9HrykvAhgBIEFFSVA8d7D2t73G0P+4FoUbeoZD/uL/KABSRW+8mWoIBE36zuMPXF5aBFAABOuASXDENyobqHXBn5ErwiV/CoBqbMHtqUPASdBhfO6/DHCmBFAAkKCiIiieNzjbO/S5gdYasv4l7C9TicPwR8XnYAQgdRTHG6qEQLHxh/le1gy4ZFyJBlAABOeESXDENgobOHaqtil/feaHN+bv9HkUAJXYgttSh4CzAYT5+adjgS+/L4gACgCSVBQkxXMGY3ey0p/Xan8yz/+D5uCn+lXycRQAqaM43lAlBCo1hjC2PTYUOPwFQAEQjCMmwRHXsG1AMv7bPJb6XbHdwEujoiV/8XcUAJXYgttSh0AYJF/tHLf2AaZtVAjbUfF8JEfagF4bkFX+Nu/3Ntd/5noDDwwMf7y/lF+iAEgdxfGGKiFQqhFE9d2HM03IuCGdMjGgDSTPBqTn75X8pcBPmNP8qvk2CoBKbMFtqUOgWoMIe/vTTSY27k+e8yNh8Zll2QaOeQz7y6I+r42LPuTv9G8UAKmjON5QJQScDSAOn6VHMGipwokzJJUskwrvPRn2L1G7TR6q/I1eqXBXv3iE/J3+jgKgEltwW+oQcDaAOH1+ebSJLQeT4QRJVnxOWbQBqe+/Ya+7MX9J9PvVJDOUmv61+jEKgNRRHG+oEgK1NpSwfndjT6BxkYmjzA1gbsRZiow4iYx9x90v7iOFfe6Oaa+/2JdRAFRiC25LHQLFxh/n9w8NAhZu40yBOBEAryWbgkQy/XcddtfrX7jZwM/GxG+sv5yvowBIHcXxhiohUK4hePn+pl7hjOfV5YFfTTGx7VA2HS8Jl889ahuQZL8tLqb5rdhh4LfTzdAy/MU36CgdTAFQiS24LXUIeCH6cvtuOYpQ5/F26gl0m21i/wkSQtSEwPNnxwYPnDCwvsp4v1Tzk6l9d/YNp1MgPqlTD2DAYoVHB/uPNFAApI7ieEOVEChH6l6+/+YccOob4Onh4TV6ub67GoHhKxXzAzg2zvyIAG3Abch/xHKFhwf5J2EvvueW3sDYVQqtuw0KgEqOntuIQCkEvDS2cvuKAJC/7y8Cb0wOVwTINd3bH2haQSHA3nh2euNhPetDJ6tP8ZuwWkHqd5TzD0F9f2cj0LyuQP4UAKW8O78jAlUQ0NE4bQEgIkBW+PtkTvgiQO7j/oHAuDWK1QQD7A2GRTw8T7RiRnr9Ow9XzvIfs0rhqWHhE7+09UcGmZAEQyF++59DAFWcPTcTAScCugWAiAATwMg1QMeGaISARASGLlc4eDJaJ0oSI/5JtIGDn5fv9csY/5ClCo9pGG+v1fe8MtqE1BSwid9+pQBwend+JgJVEKi1ERb/rjgCIALA/ms7DHTpH40IkOu7rS/Qd6GJPcdIREkkIl5zuHZ79LSBbQevJVYh2JYdBhoXKNwXYXuWZL8ecxXWFvX6bfKXVwqAKs6em4mAE4FiIq/1fTkBIELgy++jyQsovheZNfDWZBPLdrKOAEk1XFJNBN5nDOw9amDdnmvJX8LsH80wcXuf6IS8tGUpIjRpzZXx/mLit99TADi9Oz8TgSoIFBNlre8rCQARAaYJjFgd3ZBA8X09O9zExFaFI6wsyMx55kpg/3EDGx11/KWHLZn1Emqvi2gYr7jNynXI4kE20Zd7pQCo4uy5mQg4EShuaLW+ryYArhoSGBBtT8K+Rxke+HS2ibV7GRVIRC+VZK1VsB363EBb+9WkKr39T2dFG+a326e8SmGfSiF/pxCgAHB6d34mAlUQKG5wtb53KwBECHx7Hqifj1gtCPJMk4mRqxTajzM8TDGQbhuQxXu2HLhC/Kt3GmhapvDSqHj09m0fJLMLZm64cp1Osi/1mQKgirPnZiLgRMBucH5evQgAOxog1QMfHxqPaIB979LjeH2CiQmtnEFAIZAuISDEbyf4SSa/zN1/d4ppJcra9h+HV1kKvPtsBbnGUiRf6TsKAKd352ciUAUBHY2+FgEgQuD8JaD/skIpTx3XofMYUmHs/WYT8zazrgDFQHLFgIT6tx4wrMz5Ka0K7081cVdMV+WTKMSCNu/Eb4sCCoAqzp6biYATAR2kWasAsKMB+04Bjw+JpqCIm/uXJYntyMCBz5NLBiTy7Dw7qdsvY/zS0/+g2Yx0Om61NiZiu8/8yhn+NslXeqUAcHp3fiYCVRCo1jjdbPcrAEQIbGo30Hu+iny6UbX7FTHwy4kmxq9V2HU0O4RC8RD/Z33iTCHMP3KlwpsT4xfed7Ytmdf/3lR3Gf6ViN/eRgFQxdlzMxFwIuBslLV81iEANl9eYlSWEZV5xzqW9qzlXrz+5tEhQI/5JhZuU5BCKiRKYhC2DWw6YGDwUoWXR5no3CNeeTXl2pOE+2dvrD3cb5N+8SsFgNO78zMRqIJAuQbq5XudAsBu0PPaDLw21ozVbIFqmMjUwjcnFWYUbNxPIgybCLNyvp1HDUyW8fxmE/d+lgzCt9vOY0NMa1jCbuc6XykAqjh7biYCTgTshunnNQgBYDsGqf71xND45gdUwu2efsC7zaa1QFHbAQqCrBC07vuUUtbTNyp8PMvEI4OTRfh2+5DEwwGLy5fxtdu7n1cKAKd352ciUAUBu4H6eQ1SANgOQZKZZL6+n+uM+rd3NRaSCRsXFYYMWI2QoqiUWNhy0LCmon4404QMMdXlk0n60t6khK8U81m1Q2+43/YLxa8UAFWcPTcTAScCOkgxDAFgN3RZgjTpQsDGXOY8vzDSRLfZhfLEMmwgiVylSIHfpROXHYcNzNyk0HuBidfGxT9xz7bdaq+yaFDjQoXVNcznt9u611cKAKd352ciUAWBag3ZzfYwBYDtFCQi8PyIZEcESmErU6JeGm2ifm6hINGaPQpHuW5B4kWRCDsZBpq2UUEiQDKtVHrHpWwgyd/dP6AQ6l8TIvHbPoECoIqz52Yi4ERAh7OJQgDYjV5yBF6JWRlTHZgWH0OmS8nY79uTTXy2RGHGJgXJ/Oasg/hFBU6cNbDtkIEFWxWGLlf49XTTiljJ9NHiZ5q290K+MhOhlgp+dlv2+0oB4PTu/EwEqiCgwxFFKQBspzF3k4GuzSakB63jnpJwDBEGDw0q5BXk55oY3aKwZLuyCOg4hxICjRrsPmZg5S6FSa2F8L0sN/3kMBNpJ/ridtGpAdZMnYlVlum122jQrxQAVZw9NxMBJwLFDbrW93EQALZzkWQjqSr20MD0DQ94eT4yH/yBgcArY0yrF9pvsbKWQRaBILkGh07Gr/cclzwHGXLZesjAsp0KzRsUBi8rZOD/fHwhKS9LJF/K5u7oC3w43YSsHmi3uzi8UgA4vTs/E4EqCJRq4F6/i5MAKHZE41oUfjbGRMcYrGnuFdMw9pdoiQwtiEiQOeUSRRi0VFnTFme1KYsAZahhXwpWSTx40sDWgwZW7VaYu1lZWfYSou+1oCCQhNyfGGbizsbsRJC82phMxx24WEFWECxuZ3F5TwFQxdlzMxFwIuDVCZTaP64CwHZMssCIrHP+wAA691LPz813MhVNCh1JkpcQ5YujTAhp/mqKCZmuJtUQhUxFQEiPWYYjxq5WmLZBWYlvUinR+S9kvHrPtf/O/eSzCBI51sTWwrGHrVDWufouLJxb5si/12zinyaYeHm0CVlOViIgt/dFYqrjuXkOYe9zex9YqwZObfVfq99uj0G9UgA4vTs/E4EqCOhwKHEXAMUOZ8b6wuIo4th03DuPQRzTZgOSWyKleocsjW9vv7hN2+8pAKo4e24mAk4EdDivJAkA21lIGHP48sIQgTg8HTjwGMQxyTYgBCpFexZvjWeI32675V4pAJzenZ+JQBUEdDisJAqAYiciDq/XfIXnhjNfQIc98BjJEUIPDzLx8UyFWZoX5iluX2G9pwCo4uy5mQg4EdDhrJMuAIod1LJtBvovKkQGbkr53G0dz57HSA7Z289KciNkxc00kH5x26UAcHp3fiYCVRCwnYKf1zQJgGKHIlMKZZjgF+NN3Jyh+gJ+bIG/jZ8gqGsAnhpaCO/HbepecXvz+54CoIqz52Yi4ERAh8NOqwAodkgtOw2MWqnw/lQTD2a8xoAOm+ExghUKd/aFJVxl2t7Sbckc0y9uf27eUwA4vTs/E4EqCOhwxFkQAE4HtHiLYWVJvzWJc8d12BCP4U8QyMJSksPSfbaCTNlbuzsbpF/cLikAqjh7biYCTgR0ON4sCoBixyP1z8XpdptVWKmwM3MHOKsi4CV8Jaz/yCATHzSbkBUyW0JYbrfY5uP4ngLA6d35mQhUQYACQH9PSVZCE0EgU6qkEiFrDvjr3eqw0aQfQ3r4Mo4vhC95KZKsGkcSjvKaKACqOHtuJgJOBHQ4xqxHANw4PVmsSGYXvDvFhDgqqaynA3seI504SgVDKcYjIX1Z+lpyUNzYWZb3oQBwend+JgJVENBBIBQA3p2z1B4YuULh05mFKMG9n4GiIKOiSEosvzDCxK+nFarvzUnBnPwohAgFQBVnz81EwIkABYB38g7Kua3Ybli9PRk6kORCCfnKqn46nhGPEQ8cJTtfevYyD19C+RIZCsqesnZcCgCnd+dnIlAFAR3EwAhAcE5ckrskn0Cmc8kSrK+OMSHV22RMWMez4zH04yirT3bpXyD6rs0mGhcUwvgctw+unYjYoQCo4uy5mQg4EdBBABQAwTq2Uj05mXkwr61Qm0AiBm9PMvHscBN39wOXPw5pKOGOvoAskSuFomQGyNClCjPXG7FdLreUHaXpOwoAp3fnZyJQBQEKgPDJOwynK71NiRzIim4iECR7XGYkiJO8hVUNq0ZPZIEoycuQYRjBTfDrM19ZYXvBdQWn3cVu6IICoIqz52Yi4ESAAiCdAqCayFi+zbB6q+NbCiKh1zyFj2Yo/GpygfCeaTIhNeMlQS0tMxZu6gXc1x94cqiJV0aZeGOiid9ML5TIlSGW0SsVpq9TWLQlmzZRzWbivp0CwOnd+ZkIVEGAAoDOvppjl+EGmbUgCWvNrYXxbCmLLNEFGd+WCIPMZpBe8lsTCyFx6TXL//MjTKtCnVSpk//HhhSiEOKs5V8IWXra9r8Ut7G3yasIEfu38vrTy8d9bZxpJUrKOUW45Ocoq4c+eInCiOUK41oKFfFmbzSwcIvBaXQZqAwo9uLXn9U1oGMVl8nNRCA9CPhtMPL709/C99/m/STiakTM7bQR2kB5G7i/v/+ETgqA9HAb78QFAjoEwIEzvvkfFADlHRudPrGhDVS3ARmu8uvPKABckAZ3SQ8CfhuM/H7zEQoAOujqDpoYEaOgbECGqXTUzKAASA+38U5cIKBDAEzfTAEQlGPjcUmatIHqNjBro+G79y++kALABWlwl/QgoEMA9FhAAUAnXd1JEyNiFJQNDF6qKADSQ0u8k7AQ0CEAnhtJARCUY+NxSZq0geo28N5U/zMAGAEIi3V4ntggoEMAyDFOfO1PBDAJsLqTIxEQI9pAaRuQ0ss6fBmHAGJDTbyQMBDQ0WjkGM2bKADonEs7Z+JCXIK0gRnr9YT/xY9RAITBOjxHbBDQJQBeGEUBEKST47FJorSB0jYgCy7p8mMUALGhJl5IGAjoajhynB3HaxcBHAIo7dzo9IkLbaC8DazaYeBWjWtbUACEwTo8R2wQ0CkAfjuLAoDOuryzJjbERrcN9F2gL/wvvpACIDbUxAsJAwGdAqCuAdh7sjYRwAgAyUE3OfB46baplh2Gtfy1Zh/GtQDCIB6eIx4I6Gw8cqw3JlMAkHjSTTx8vvF4vt1m6e39i/9iBCAevMSrCAkB3QJAjrdmv3cRwAhAPJwqyY3PIQk2ICs83qxx7N/2gxQAIREPTxMPBGzD1/naZQDwzTlvIoACgMSTBOLhNcbDTl8ZrS/zv9j3UQDEg5d4FSEhUGz8Ot93m0sBQLKIB1nwOaTrOfRfpD/0b/s+CoCQiIeniQcCtuEH8bp4l3sRwAhAupw0SZfPMwgbmL0xmNC/7f8oAOLBS7yKkBCwDT+I15t6uZ8VQAFAwgiCMHjM9NjVih0GHhwYTOjf9n8UACERD08TDwRsww/q9dEh7vIBKADS46hJunyWum1g7S4DPxsTLPmLD6QAiAcv8SpCQiAo4i8+7stjgO8vVh4OoAAgaegmDR4vPTala7W/Yr9U6j0FQEjEw9PEA4FSjSCI734xEbholBcBFADpcdYkXj5LnTbw6czgkv6cvo4CIB68xKsICQFnAwjy869nAoYqLQIoAEgaOkmDx0qHPfWap1CX17PUrxvfRgEQEsnXK7IAACAASURBVPHwNPFAwE2j0LnP21OBC5euFQEUAOlw2CRePkddNtB9drjkL36OAiAevMSrCAkBneTu9lhSLvi8QwRQAJA4dBEHj5N8W/pwevAJf6X8FQVASMTD08QDgVKNIIzvJDHw7HdXIgEUAMl32iRePkO/NrBml4FfTYqG/MXvUQDEg5d4FSEhEAbZlzvHfQOu1AmgACB5+CUP/j7ZNrRsm4Fnh0dH/hQAIZEOTxMfBMqRc1jf39oHaGkHKACS7bxJvnx+fmxg5gYD9/cPL9mvnH9jBCA+3MQrCQGBcg0hzO8ly7drs4nVu+hE/ThR/pb2k0QbGLpUBbKyXy0+jAIgBNLhKeKDQC2NJKjfPDXMxMLNdOJJdOK8ZtqtVxto2Wng3SnRhvydvowCID7cxCsJAQFnA4j68y29gYGLFbw6E+5PAqINJMcGpq9XeGRwvMhffB8FQAikw1PEB4GoCb/c+aXutyQF0akTA9pAemxAavr3mKvQuUf04/2lfA8FQHy4iVcSAgKlGkFcvrurHzBiOaMBJMD0EGCWn+XM9QaeHBq/Xn+xv6MACIF0eIr4IFBs/HF9/9IoE/PbSAJZJg/ee3Ltf9UOAx/NMGPb6y/2exQA8eEmXkkICBQbf5zf39QLaJirIIVCSAbEgDaQDBsYsULh3s/iGe4v5e8oAEIgHZ4iPgiUagRev3tgYHgNXM4lToUEkAwC4HPK5nOScP+LI8ML99/YE7i1t38/RAEQH27ilYSAgFeyL7X/sS+Bn43z3/hKHbvcd88NNzFtHYUACTabBBvX5y6JuzK1r2NDeP7gjr7AlFaFRzXMKqAACIF0eIr4IFCOYL18/825wuI+XaeH1+jl+uoagF+MNzF3E0kgroTA68qGba7YLuP84Rf0eWAAMO9y+6cAiA+v8EoSgoAXoi+3rwgA+TMBNLWEKwLkmjpRCHBIZHc2iDZugmrljsK0vtv6ht/unxhqYsnWK8+dAiAhpMPLjA8C5Ujdy/e2ACjIAGDyhkLv3MsxdOwrc4tlJTG7RxA3Z8nrueKsiUWysZAef/1shdv7hE/84iteHWtCKgkW2xEFQHx4hVeSEAR0EK9TAIgQWN0O3NkYjXOQ8cefjzMxnTkCVznIYmfJ91eTB/Fwh8fiLQZ+M82MrHa/DPt9MlNhbYmIDwVAQkiHlxkfBIISACICTn0DvDI2GhEg9yWLDL000sTYVaUdBp2+O6dPnIjTrI0G3p5konPP6NqzdCjGtZRP/KUAiA+v8EoSgkCQAkBEgKEKeQGi3HWcq9Zj3NcfVgnSFTvozEnotAE3NiBle8esUpBCXCKma217On73TJOJhVsqPzcKgISQDi8zPgjoaJylhgDsfAD7NcohgeJ7vLk38N4UE7M2VHYmbhwk9yGGabSBJVsMdJ+tcE8MCvj8GPJ3UQCMAiA+vMIrSQgCxeRY63s3AsAeEnhtfLQ9ieJ7fGqoicaFCowKkMjTSORe7kl6+1JgSxbh6hSThXru6Vc55O+8PwqAhJAOLzM+CBQTYq3v3QoAEQEyVXD6ZuDWiLKHS92jlBn+5QQTE1YzV8DpVPk53eJo9kYDv51uQhbeKtU2ovhOev3vTDE9C3MKgPjwCq8kIQjoaOBeBIA9JHDmO+D9kAsHublXcYRSyUzEAMkv3eSX1ee7cHNh7r5EwKIe23e2ScnVqZToV+mZUQAkhHR4mfFBwNkAa/lciwCwhcDiXcDdMRhrLHXfDw40rSlHzBegEKhEPEnYJtP3+sxXkGS6qBNyS7U1GXb4cPq1c/u9YEsBEB9e4ZUkBIFSjdHrd34EgAiBr88BH0yLX2+kGAcpOSrzn6XmeKk5yF4cFfeloAjDBua1GcjPUXhqWDxJ325fz48wMWuj/4gbBUBCSIeXGR8E7Ebo59WvABARcPpLAyt3KbwQ4gpitd7z3f2AX002raQpWes8DGfOcxDnajYgiXyT1iirJ62DDGttH25/16U/MHmdwomzBjbu8/98ddwzFwOKDzfxSkJAwG1jrbSfLgHw+VkD8j+7TeHBQfFJSqp071IYRVYmlGlTU1v992KqOXlu908UacJQauEPWarw1iQTd0ZQj79S2yi3TZJuGxeZOHyq0N6lzVMAhODseQoi4ESgXCP18r1uASAO4ehpA00rFG6L0WwBN5iIE5apVDLeOr+NZJUmso3DvcjiO1Kc54Nm01r+No7j+eXaiVzr+80mdh29Qvy26KcAcHpmfiYCISBQrrF6+T4IAWA7hr3HDHwyy0SnCEuQesHCua/kDsgCRYOXKCygIOBwSYka9pWExfJtBkauUPjNdBOy+p2sc+G0sSR8fm28iXX7lBXhs9t28SsFQAjOnqcgAk4EdDiPIAWA7SR2HzPQY76JGxMqBGycJUIgpVVlyECmGq52rGhWiQy4Lf0RFZmiJyF9mYoqY9pJ6uHbNl78+tMxJlb8kNtjt+NyrxQATs/Mz0QgBASKG2ut78MQALbj2HPMsMYPb+mdzJ6QE2OZ/iSOXhx+/0UKM9YrSDIXyT79GAjZD1+u8NEM0xKFtydkDN9pw87PUlvg9QkmWvZUJ367XVMAhODseQoi4ETA2Xhr+RymALAdhgiBXvNNpEUIFOMuSVIyX1tEQeMChclrFWTsl6IgmRis3mVYwk6GgWQqqUSAkpKwV2yX1d7L8MQ7U02sb3dP/HZ7pgBwemZ+JgIhIFCtUbvZHoUAsB1H+3ED/RYrSN1wN9ea1H0kFCzTpl4ZbVqlWwcuVlZNghXbk0mKaRQzLTsLRD90qUK3WQo/H2fi4UHxqa0flO3LsNxvZ5jYdODa5D67nVZ7pQAIwdnzFETAiYAOpxClALAdi8wamLIuGXUEdGBefAzpTUrEQKaCSeEXIaDmVoVl2ygOdAsNqfswc31h4Zxe85W1suSLI03c+xkSP15fbFNu3t8/EBi8TEFEuN0Oa32lAHB6Zn4mAiEg4KahV9snDgKg2PGs3qPQdZqJGxKeMFgNdzfbZflj6YW+MqowpCACQaIH41sUZCEYFjK6IpIkIVNmakxcUxBRPeYWptu9NraQgZ+WMXo3dlNuHxnfl8S+WW0KJ874J3673VIAhODseQoi4ESgXEP38n3cBIDtVCRPYMBShXv7p3t4wMuzKrWviIQHBhaiCK+OMa1pi1KXvefcglgYvbJQ5GjuJgNLtxmQMW3dPesgjicRECmHO32dshaYkez63vMVPp5ZyLKXEP0LIwph+jv6InYL45R6VlF9d3Mv4ONZJjbu10f6djuVVwoAp2fmZyIQAgI6HEpcBYDtYI6fMTB/q8K7zcmfRqjjeek4hkRXpEcseQkyi0GqIQqZShEk6THLcMTbk0yrYI3MYZdpj85/KZZU6t+5n3wWQSLFb2SZWDn26+MK55KEOjm3zJEXESOrOUoSpY57zPoxJO9EevsTWhUOngyG+O02SgEQgrPnKYiAEwEdTi7uAsB2MvIq5UenbVCWY4vbUqg6ngWPQfL3awMPDyqU6t1yMFjSL26XFABOz8zPRCAEBPw6C/l9kgRAsdPZcdjAoKUKDyVk3QEdz4rHoEAoZQNScvvDmSaW7SgszlPcTsJ4TwEQgrPnKYiAE4FSzsDrd0kVALZjk9XIZCXChvkmxUCeBOnV/pO6/x2NwK+nm5jTpnC0aGEeu12E+UoB4PTM/EwEQkBAh/NKugBwOjopZCKRAZnexWECCgIdbSQux7izsbAgj6y4KVNnnbYf1WcKgBCcPU9BBJwI6HBMaRMAxU5w26HCqoSWGEjoQiw6njGPkVwhdP8AoNvs6ML7xe2p3HsKAKdn5mciEAICOhx7mgVAscOSBYkmtSp0bTZxd8orD+qwCx4jGtEgU/akFn/TShXYtL3idqHjPQVACM6epyACTgR0OOmsCACno5Ms6dEtCm9NTueaBDpsg8cIXgTIdL2nm0xrtcyF26Ifz3e2EzefKQCcnpmfiUAICOhw0FkVAMWOTaYXSq2Bhnkmnhme/vrvOuyGx6hdHMhUPUnga16vsPdYfMbyi9uEl/cUACE4e56CCDgR0OGEKQCudcAiCGRKlSQTSjj2tpQs9arDXngMb8QvS0ZLD1/G8aWGhVS49EKuSdiXAsDpmfmZCISAgA5nTAFQ3SFLNUKZXSBDBu83m3h0iDcS0PGceIxkYC5LXEsFvsZFJiSkL2IyCSTu5xopAEJw9jwFEXAioIMUKABqc9DtJwpRgqYVV0SBjOfqeCY8RjJwlMiQzDCR3r2U3BWRqHORHT+kHOZvKQCcnpmfiUAICOggCgqA2gRAKQd74HMDS3coK4NbVjR8cpiJzj2SQWY6bCmtx5B6ErJWwZuTTQxYojBvs8LOo/rsppQtJek7CoAQnD1PQQScCOhwuBQAwTryY6cNyIwDCQdLtEBKtkqI+B5ORYxdtKRTT1jDOzIzpMd80xrykVwQEXZJIuSwr5UCwOmZ+ZkIhIAABUCyHbNkgAvBjF1dmIHwxkQTzzSZkIpvOp4tj3EtjjJG/9gQ00rulCVyh69U1gwQKRolZaXDJs80nI8CIARnz1MQAScCOhw8IwDxdPqSPLbpgIEFWxXGrVFWUpkkIP5ktImHBgI39ryW3HTYQ5KPIcMt935WGJd/Z6pprQ8xcpWClM5t3asgeRtpINy43QMFgNMz8zMRCAEBHc6aAiC5pHDopIGtBw2s2FUgufFrC1MX6+ea1myF18abeGqYiS79YU1lTFqSovTWZajk8aEF4SOk/ulsE/0WK4xqUZixSVkRlI37DbQfT+5zjBuhe70eCoAQnD1PQQScCFAA0Ol7ddYSWZC56JKXsGZPgUDnbVHWHHUZipA8Bal/IP89FxTGwmU8XP4lf6H4/+3JplVJUcbM5V+K2xRvz8+9+veSQCfHHbK8MKVSCuHIanaLtyus3qPQdtCwkus45p4su6YAcHpmfiYCISCgQwCc/Aa+/05/mSyH5ZU0uT+fL22gvA1QAITg7HkKIuBEQIcAaD/lm/9BAVDeOZI4iE3abYACwOmZ+ZkIhICADgGw4RAFQNodNO+PIiRIG6AACMHZ8xREwImADgEwcT0FQJDOkccm+abdBigAnJ6Zn4lACAjoEACfzKEASLuD5v1RhARpAxQAITh7noIIOBHQIQAeHkwBEKRz5LFJvmm3AQoAp2fmZyIQAgI6BIAcY/9pfyKASYAkubSTHO+vvI1TAITg7HkKIuBEQJcAGLWGAoAOvryDJzbEppINUAA4PTM/E4EQENAlAB4ZAphm7SKAEQASRCWC4Lby9iFFmWa2FQokfTCtsEbBy6NNPN2UnH9ZW+HRwf7+b9BR2roBe3J5rOc/MYjcBhqwKFeP6R3y6F+Xx8/rGnDjTb3xZ1plgS4BIMdpaacAIFGVJypiow8bKV3ca75plTiWpYZ1tmMei3jSBmJrA0auAWvq6vF2x574t77FgM4H/doECgCSnD6SI5ZXYykrDc7cpPD8CJOET9FDG6ANqLo85nZowD/WLAR0CgA5VuuB2kQAhwCudvYkP+JRbAOLtimrt6+7vfJ4se3pkeBJ8F5sYFmHPP7asxDQ7QCeGVFbLgAFAAmvmPD4vmAPskLhu1PZ49ftp3g8Cp8U2sClDnnkr++KP3YtBIIAobnNexSAAoACgKR/tQ3IEs33DaCjDsJH8Zi0q7TaQF09NnXqhr90JQKCAEHWYD/xlTcRQAFwtfMnGWYbjynrFDrpyGpnGNVLGJX70l7SYgNf5urxX6uKgCAEgBxTEgK9TAukAMg24VHwXHn+I1Yp1DWwhxaUb+JxaVsZsYFzHRpwR0URECQQTS3uowAUAFcIgGSYTiyOnzZw5JSBQ58bOFjmf+xqBU7rI0EF6Zd57EzZ14VcAzqXFQFBGoP0Yla7rA1AAZBO0suymDl+xkD7MQPbDhhYv9dA6+7K/6NWKnRkzz8tIVjeB4cT4mIDX3dswP9RUgQEKQDk2Lf3BQ6drR4JoACgAEiLWDh22sDOwwbW7alM+MWCYEGbgdv6ZKpnEhfnyOsgUWfBBnZe34g/vUYEBC0A5PgPDAROfVNZBFAAUACkQQDsPWpgvQfiFxGwdrdhle0Noy3yHBRZtIFs2kBdHkMiEQBicI8OBb78XXkRQAFAAZBkASDh/i0H3Pf4i3v/jQtUFnogvEf2tGkD0dqAWZdHh6tEQJhq8IVRwNfnSosACgAKgKQKAAn5t7XXRv7LtjH0H6YP4rmy2fvlc//xuW/tMgF/8KMICBuYJ4YBZ769VgRQAFAAJFEASM+/VvKXKMDHM9n7D9sH8Xw/kgF75NH2yCPBvy6P+yMTANL4HhsKnHTkBFAAUAAkUQBIhn9xON/L+5U72PsnGZOMaQMh20ADNl8H/J4lAqICv0t/YNeJK5EACgAKgKQJAEn480L4zn37L2LvPyr/w/OGTDoZ7GnH3Mb+v0gFgIBzUy9g2Z6CCKAAoABIkgCQoj5es/2dAuC54foX+Xl8qIneC0xMbFWYv1Vh4Tb+EwPaQBxsYNYmhTGr3P1LTRDpILw/1cQ9n+kXax3y6B+5ABARIMWChrcAp74gASaJALN+rbuO+Ov9L9lqaC33++gQYN4Whaw/F94//WicbaCWfKG1uwwMXKxwZ6NWIXDKGgaIS5jitXEm9hyj8cbZeHltBfs8cdZ/73/IUn3h/9cnmDjwOdsO7ZM2EHcb2He89o7Dwi0GHhusL2rYIY+/vi4uAkCu497+wLId7MXE3Yizfn37fTRiexjgncl6GvJzI0xrfYGsPxPeP8k/CTZw4oy3CqG2v7Bfl2wxcE8/PZGAunr8LFYCwB4S6DbbxNFTNOgkGHQWr3HHwdpVvN2Qn2nyLwA69wDaDrCdZNEGec/JtfutPmYOif8Y16ItejgodgLAjkg8McxE615GA9jQ49fQN+7zLwDu7OtfxX8wzeSY/9n42QfbLJ9JJRvY43P2kIiAp4b570Dk8lgeWwEgQqBTT6BxEaMBlYyJ28J1NjL+b/fia31dvcvQUgCESX/hPnu2NeKtwwb2n/DvQ3rO0xIFOBhrAWBHAx4eBGs6kw7weQw2Yj82IENTtRK//Tsp/2vbtp/X9hN8ln6eJX9L+4nCBg6f9O9DprRqEQBfJEIA2E7y3WYTO4/QaKMwWp6zYHc6Gu/8Nv8C4MaeYPif4X/aQAJt4IiGToTMCLB50cfrJS0C4NXx/scz3d6EFA/qt1jhMJME2fgjaPw6BMDcTf4b7219KQAoStkZSqINxCmKqEUAfPk9kJ8fnggQsSBTBie0Ksi0iiQaAa85mc+NAiCZz43tjc8tLjaQOgHwzeUlfidvKFT2c9ub17HfY0NMTNugIMlZcXnAvI70PgsKgPQ+W7ZbPtswbCC1AkCq+i/dDdzYK9xogAgJqYFOIcAGHHQDpgCgjQVtYzx+um0s1QJARMDGQ4CMUero4Xs9xrPDTczYxKEBOpFgnAgFQDC40l6Ja1ZsIPUCQETA0S+A50ZEIwJENDw4CGhaoVgmlUMjWoeGKABIVFkhKt5nMLaeCQEgIuDCJaDHguhEgAgBSRYcvFRBFmGgQRMDvzZAAUAb8mtD/H22bSgzAkBEgPyt2AvcHtGQgD2E0Lkn8NZkEyt2sbwwHVDtDogCoHbsaHfEjjZgWOvc2EXBan3VVUxMyzRAexbAZb4v+RL1kIAtBOT1xVEmJraylgAbo3eHTAHgHTPaGTGjDVyxgcxFAGxFIEMCjUuAjg3RDgvYYuC2PsDHs0ys3sOoABvolQZaCQsKAHc4VcKQ24hhlm0gswLAFgLbjwNPNcVDBNhiQFZXGrZCsdQwkwYr5opQAJC8skxevHf/9p95ASBC4JICxrYCN/SMlxCoawBeHGlaMwj2HvP/sNlg0oUhBUC6nifbJ59n2DZAAWCHAgAcOAP8ZEy8RIAdFZDEwV9OKOQLtHMWQcWecdiNKKrzUQCQMKKyPZ43HbZHAVAkAOStaQJ95ivc0jueQkAEQecewM/GmhjVorDraDoMkQ7F+3OkAPCOGe2MmNEGrtgABYBDAMjHzfsNLNlq4J3JJjrFJEnQjgQ4X2WY4LkRprUqYctuVh3MUuOmALjiyLL03HmvfO66bIACoIwAsOdEztpo4OVRZiSlhJ1k7+bznY3A+80mpqxT2MO8gVQPFVAAkAh0EQGPk01bogCoIgBsITCuReGRwckRArZYeGAg8OHMwuJEzB1IVyOnAEjX8yQJ83mGbQMUAC4FgAiBtbsMfLZQ4Z7P4psfYBN/qVepeSALFDXMMzFzEyMEYTc23eejACBh6LYpHi9bNkUB4EEA2NGA1ZeFwH39kykEisXBQ4MKQwZjVius26dw/Ey2GkCSHR4FAG01yfbLa4/efikAahAAthCQiMDAxQoPDkze0ECxCCh+f1OvQu2BbnNMTGpV2LjfwAmKgljmEvgVAGK/Y1cp3/ktstw2nXn0zpzPgM/Aqw1QAPgQAMVCYMgPq/w9Mig9QqBYFMiUSClIJLkEI1cpLN2uwHyC6J2NFwGweKuBMasU8nOUVU/i0cEmpLZE8XOu9T0FQPS24NXxc38+M7EBCgANAuBHIbDbwIjlCs+PMFGX1+Nca3XKYfxOljd+bZyJ+rmFmgSLtinsOMKGFZZzdQoA6dHP22Rg1EqFhrkKb00y8UyTGfjqlxQAtPmwbJ7n0WtrFAAaBYAtBORVpg9KHQEJqYdBxnE6x829gKebTPxqioleC0xIfsGCrQptBwwcO6XXgLPmEKTByrDMvM3KWi+ia7OJn40x8fAgM7JS1hQAtOmstcO03C8FQEACwBYDK7Yb6DlP4f4UJAzqEBlSuOjezwrLIItA6D7HxNDlCpPXKSzdURAJhzMqEkQcbT1kYNkOheb1ysJFoitvTzGtIRjBLY6RJQoACoC0EGLW7oMCIGABYAuBtbsNjF6p8JNRZmyWINZB6EEdQ/IO7h9YqHL48/EmpKcrZDhgicLoFoVpGxTmbVFYsUthfbvCjsMG9p+IhyOWpEnJkdhy0MCaPQpLtivMalNWUqWs8th7gYnfzjDxy4kmXhxl4pHBCDxMH9RzkuNSAMTD7rJGXrxf/3ZHARCSALCFgLwu3mJYyVgStg3SMWf12Lf1KZCSFEF6cFBhOELGwn86xrTWUHhrsgnnv1RPlCRH579EKZz7St6DHEtKMMtQh0yllHPd0QjI8EfWcE+LABBnKGJy+kaFIcsV+i4siE6nTej6bA+PiXhNC5kd+NxAy55CRG/w0gKG+bmFdiX1RxoXmRi8TGHqemWJ40Mn03Pv1Z6hRPhkKLT/EoVPZ18ZHo3y+VMARCAAisXAjPUKHzSbuKNv9ogja0SZ1vtNqgCQSI1EZ/osMPHCSBOdekTTBmVYR1b6lNyOaiQSt+3bDxuYsFZZEbr7BnjHT+79oYHAr6ebmNyazsXNjp42rOE86SCU8gFRPn8KgIgFgC0G1uwqzCB4dYy+6VmljI3flW6ExKV2XJImADYfMNBrvgmZxRKn5y4Jw9M3qNiLgPYTBia0KisKpjsnRXKEZMqxDPNJNCFugsfr9ew7buDl0e4ivVE8fwqAmAgAWwjI66odBoYvV/jFeBM3x3hZ4jg5T15LdGSWFAEglS5lqCeqnr4bG5Vy3XM3x1MESE6LDH/oqh9RDQ8hREkSTurU4iOnDGtKeLX7LN4e9vOnAIihACgWAy07CwVc3p3CYYLihsL30RG+E/u4CwDphUnSpfQundcex88SKpZettfeZlD7yxj1exEKJxEcH800E7e6aY/57nr+ThsM8/lTAMRcABSLASn0IqsSSn2Bu/slw5k5jZuf0/fc4iwAZHppubHXONui5CUERehujytj100rFGRGThywkuReuZ4krFey66iBG31U2gzr+VMAJEgAFIsBeT93k4E+85VVCIZDBfFwUnFwlGFfQxwFgIRfu82urQcWNn6lznf/gGjXV9jQbuDxofHETyqtSr0Mt0Imiv2kZHqp5+r2u7CePwVAggVAsSCQJMKprQrdZys8NTQ54U63DYL7xVfgxE0A7Dxq4Mlh8SQvL3Yc1fQwSfCLewVTiUpILZAoyN3NOWX6sJdnXWrfMJ4/BUBKBECxGJD3sviLrFQo9eAfGkhBUKqB8Ts9oiJOAkDKTUsBqTQ8Wyly5YZsdO0j0yI/nuWfuMLCXmYgSK0GXfev8zgvucz8r4RVGM8/bgLgQiVA3Gw7820JRvf41dYDBpyEmvTPUpJYVoP7aIaJ54ZHVzfezTPkPskisLgIAJnel6bcmJbd4QkAKVIjJaeT2Pa6TjNx7HS8hgSkQJhfLBduC/75x00AnPYL2sEzHtm+xO7bD6nUCQCngFm9y8CkNQoNcxReGW3iLiYV+m6wfm03qb+PgwCQpCup+phUDEtd9+5j4ZCakMCrY/0TVql7COs7qdYZp+RACgDvbfG6Dnns92swW4+WYHSPX+06kn4B4BQE8nnJ5TXj62crvDbWtBYwSsrUKb92w997b7A2ZlELACEwKfVsX08aXiUBT2dIutyxJOwv5JkGzGSqZ7n7DPt7CgDv/uS6XAM2+zXEmVs8sn2J3duPZ1MAlBIFK3YYmLhGodc8ZZUrfWxwNpc49muXcfn9Pf2Al0YWFlfqv0hh2DJ/2cpyX1ELgE8SNG7t1g5khcwwSEvm17u9piTsF5ecAAqAWgRAHrP8GlmvRSUY3eNXx86YqR8CKEX2Xr5buNnA2FUKvecrSJEimZoj5KK7NKhfe8ji76VwiiR+yoJFss5E40KFyWsVJA/E+YxlKqlfjKIUADM3+Rcwfu9f9+9lYSmZxhi0ABizOn3Yif+ZsSkc8VTp+VAA1CAAOuSR99uYXhztke1L7P7FNxQATqJw+1nKGDevUxgsK17NVHhromn1OB8cyMiBX9su/r2Q7mNDTKsGhCyVLEJMkjzntRmQpafdPq8kCwCp8DIgEgAAIABJREFUFX/vZ94dTTGOcXsv0+/W7A2ewKQssp9CNXHDrfh6pGDQ1oPBCygKgIKfWbbNfydCnt91uTyeLX6QtbyXMesz35VgdQ9fnbsA1w7UraPlfleMZdo6Za110HNeYSVEyTd4apiJBwYAt8ak6lgttqfjN9KDkZUhHxlk4qVRJt6YaFozN6Tg06iVCrM2FNaK0GVPSRYA9XPTFb6WCNrKEKb+Sc7EI4PTJZycbU8ikpLfUImkg9zGCIB3+7qurgH/4HyQtXzWkQewqd19L0qXM+ZxCphLUaOFWwxMX1/o1Uo9gx5zFX473bTqGkhoW6YyPj7EhIRLxXFKYZC4JSze0LNA5vf1Bx4dXLhmWe3xV5NMfDjdtO5J7k2IXYo4LWgzILMzwrSDpAqAbYcMdI5o+d5afFKl30iPtWGeifbj4RBWv8XpC/2XwndUS/CRlHIiggKgBgHQuTv+JJeH71oAr4730N0vs2v7CSYChklEus7VssPA0m2FMskyFDFhTUFESHhcEt6GLL3yL2Pj0rO2//NzCpUUpZqi/S+hdXu7/SqkLccZsaJwbDmHELgIFiFUCYnJug267inI4yRVAARdsEay8N+dakKiDAOXKAxaqv9//FqFJdsVpOZ+OSLR/b2s6BdG6F+GqESoy3PqvcC08Ou1wLRWE/zJaDOU9QXkGvaENJXS+ZwoAGoQANddd51MBVxRSs15/W7352WY3eXXZ75mHkCQxMNjx0MgJFEAiFMPgsTubAQGL1WRjx87yUTn5zcDnPIn+IlgWr1HVQ2/S+GeZTuVJRBu7eOdLNzygQgQnfi5PRYFgPdnKvwveQBd3T7cSvt9Otcl05fZzVDA+r3xcNIkSz6HoGwgiQJApshVavtet3XqAcjqa5JU6NbBJ3G/jfuNQIbJpKc9bIXC4RpnLuw/YeCzJcGsPyAzYnYeCf+5UgDUKAB05QHI+ODhL8qwu8uvOQxA4g2KeONy3CQKgKc0Fv2R3JE5bdGNFYcpJGS2iFdxVG1/SVLVFWaXxW9k2KDaOb1ul6hEmDjLuSgAahQAXbvi93MNOOL1IZfa/71pLpm+zG7f/I7DAHEhKl5HMGIsaQJg0wE9U47EXwj5y3S4sMkhivPJCokS6SjlJ2v5TmaryHDJibN6e9dSzrfHfL0iQKZWhh3doQDwbmvWEMDlPIBPazHKUr9pO1yG3V1+ve0gkwFJvsGQbxxwTZoA8LvOuu0jZMbI7Iz0/EVwDNE4bCLkP25NsMJpsIYKlfazlteJrcFer1PUUQD4EAB19fir4ofn5/1Dg4HvL7pk+xK7ffEtowBxICpeQzAiJGkCQJa39uMP7N92mx1+WNhJEmF+fnKYHtwEPxETYVy7zkiADC2Ecc32OSgAfAiAy8mArXZj9fva22d5YEYBgiEfknr0uCZNANyjofKfhP51jVvbDj/Or5L859eH2r+XhYPCulcp5KMrJ0AiPmGtrij4UAD4FwBdbKPz+yohq9XtJbr3Lr/68jtGAUjW0ZN1EM8gSQJAxnH9+gL5vRTdCYvE4nCe4Sv1zJq4vS+wN+R59ZIYeHMv72RSyk6mrAsnckEBUNvz+jEHQN5YyYB57C71IGv5TuaaHjrrkvFL7LbnGHMBgiAgHjNaYZEkAdCyWw+RrQih3G4ciN++BsnUr8VnOn8TVWU9XZULw1wumBEA7yLgKgEgHzrk8ZTTCP18fnp47fkAFy6xLgDJOlqyDgL/JAmA6Rv8CwApVhNljXiblMN6lSx9mafvx2/Kb2XoRdYQCOu6i88jdQJ0FAt6aBBCu34KAO82d40A6NIVf5TLY59f4y3+/T9NAi4ZJbr4Lr76/AsOBQRBQjxmdMIiSQJASucWt+Va3r8wMlvh/x1H9Ayb9F0YLW46Sj9LHkCtxYqKBYmb9xQAGgTA5SjA7bU09Eq/eXcaoEwXjF9il91HORRAwo6OsHVjnyQB0KRhLFtmEbhx4GnZZ9E2/6JJfKkkEkaJybIdeu5jbQhLLQtOFACaBMBlETCnEqHXsi0/HzBrEAEXDYArBaaHAHUTatKOlyQBoGMuu1TDi5LIwj63jroJEv4P+7qd55O1A2T2Ri2+vvg3zRvCSQSkAPD+rK4ZArC/uL4B/yGXx/niB6nj/YezAKn57/Xv69+ZWLeHJJg0suP1XmuzSRIAkoTmt92/OjZbAkBW4vOL2ZsxiZq8PNr/vcg6Ek5xEcRnCgCNAuByFOBdv4Zc6vcfzAAu1SACTn7JfAAS6rWEmjRMkiQAJrf6FwCyzG8QDj+ux5SCR6X8npfvei6IB2aSxe/lukvt27iIAqDYViWx06/PkuXPS2Ht9Tu7w1/y9fK0wGVeD+pm/19MBL497zUOABw8yXwAv8bD3/tvgH4wTJIAmLfFvwCQevj7jkc7nl3sgIN+/8E0/6QZVq+5Gha9NEQzwqoBwQiA5giAqILO3fEXuTy+cUPqXvd5dChwxOPqgZJDsJf1AXwrSD8Ext/6ExBJEgCbNS0ENCHkuvDViC3I7W9P9i8ARreE02uuhsPAJf4F4Iczw4lmUAAEIABEBOQa8KRXcne7/939gLYj3iIBIgI4M8AfCZHEo8MvSQJAVoqT9d3dtudy+/1kdDgkUI3QwtgupXvL4eD2+7gIgEFLKQB020xihgCKxwU65NHXrfF63a9jA9DU4m2GgEwp3HWEwwEk8uiIvFbskyQAxPk9pWlRGxlO0O1M43g8CoCrBSMjAFcPfyVSAFzfFX+Ya8Air+TuZf+3pwLfnHMfDVCKkYBaSYi/i044JE0A5Of679GKH3hsiIlDJ692hnEkcL/XRAFAAVDJhhIpACQaUNcX/yqXR7sXUve67/0DgQ2H3IsAGQ7Yd5yRABJ6dITuFfukCYA5bf7DwLYfkOltUiq3koNM+jYKAAqASjacWAEgIuD6evzHXB6n7AYdxKusJCjLCZ+/5E4ISG2hA59TBHglIu4fjWhImgCQXruu1eHEX3wyy4TkFlRykkneRgFAAVDJfhMtAKykwB74m1weXwVB/sXHfGwosPWoOxEge536isWCSOrRkLoX3JMmAMSZSTW/4rbp9/1r40y0p3RqIAUABUCqBYA1HNADf5fL4zu/jqDa7yUa8PEc4Mvv3QmBr74zsWFv/EnAC2Fw33Q9zyQKgIWa6tsXt3dZ637YCoVjEa14V8lJ+9lGAUABUMl+Eh8BEAEgfx3qcUMuj++LG3VQ72W64LztgJulBM5dALYcSBdpUASk53kmUQDIuL1U9Auifd/VCEjFOck12HbIiGwJ3EpO28s2CgAKgEr2khoBICIgV4//msvj6yAcQ6ljvjga2OJiWECmCTIvID2kmSYBlEQBIA5tyjp9yYCl2nbxd7f1Ae4fUJg5IMsJS3U9KUozu02h/US88wcoACgAMiMALkcC/jboxMBi5yDvZcrg8a+qDwuc/trEeg4JsHLg7viIoaQKAEnce2Tw1c7d2S7D+Cx1Q55pMtF3oYlNB+InBigArrYR1gG42kZTFQGwxgJkimA9/irXgCNhOAD7HDf2AhqXAF/8rrIQkCGB7Yc4SyBNvegk30tSBYD0anStdW+3YR2vz48wMalVQZavrdTzCmsbBQAFQCVbS6UAECHQ6VP8z7k8WnU0ai/HuKkX0HdxdSHw+ZecJZBk4kzLtSdZAIhje2dqMLkAXtp8qX0fGAiMXa0in2JIAUABkEkBICLg7xrwL3L1GF+qgQb93a19gCErK88Y+P6CyWhAjMLhaSF1L/eRdAEg0/fuG3C1kw+6bXs5/lNNJlbsiq7sMAXA1bbBIYCrI1OpjQDYwwHXAb+Xy+ONXB7KS8PVte8NPQtTB49WWGnwzNcmNu6Lz7iwFwLhvsl+bkkXANK7WbZDQZb51dVmdR+nrgHoMd+MZFiAAuBqu6AAyJoAuKwEcg24LZfHWd2N2+3xxEF9OBvYc7J0jsDFS0D7CeYGUFCEKyjSIABEBAxfGd6sALdt3rnfiyNN7Dh8tQOuFJ7VsY0CgAKgkh2lPwLwYyjguus65/FvcnmsdDbMsD+/MKpQR+CSulYMfPO9iW0HKQQoBMIRAmkRAOLkei2IZz5AsX+RGiJr9oY3JEABQAFAAVAkAmQlwQ55fJrLwyxumFG879IfGLEaOP3ttULg7DcmNu///9u71iAprvNqOXbFVqqcR7mSSiqVV6UqlcRxJeX8cclOdnoAvYwlBVmylVhGEpYlRUgmdiRDULSJY0XSzu1dgUCseIqXYAVitRBeQrzFY0FAAAECBMtjQTIQ21EqVsrdfcI3s+157MzO9Pbtme6558dUz/T0497TX3/n3Hu/+936kADJ1lycm0kASIIgye3fiHc5yD0lr4AMWwzlmHX9RwFAATCULRnVA1CgA2Sq4EhL4UyQFzeqY2UuseQS2HYCKOwVkARCF64wnTAFSnQCpZkEgO/oZm6O/3DAzVOAncejFwEUABQA/ntRbmusABAxcOMUfCqlMCsOvQG+uBjzAjBjC3DqUr5XwHEpBCgCohEBzSgAxNF17XZxQ0ex8/ffsbhsb50GHOiLNiaAAqDYBhgEWGxvRgsAv0fAsjEqpXA2Lo7BL8c984B5O4D+H+XEwM8c4NwllwsMceqgtmyKzSoARATsOxXdmgH+Oxp2e/dsD2cjXICIAoACoFzL399HATCgAkY8jV+2FKZaCk7Yl1r3+bIK4SNLgO79wOUPABEC/Zc5dZC9AuF7BZpZAIiTE3Kd9oaHUTHuDfjXHi+yeAAKAAoAn+zLbSkA/G6AgW1LO/7cUnhTN4nrvJ7fM9B3GZAcAlxtMDwRmiomml0A+E5P8vQ/1uVBxLTOd1HXtXr2RRMPQAFQ/Lw5BMAhgBLKH/yztRUftRS+aWVwWdcLHtV1xs0H5mwHdp5kVkFTSTxMvU0RAL4Q2HPSzaYPHhmzHoHbZwB97xc7Z7/MYbYUABQAQ9kPewAG8//P91xv49dSCspS+DAqAtd53VumAa09wMu7PGw+zFZxGGI05VzTBIDvDE9ecLDgTReSnCcuWQTt9fqHAigAKAB8my+3pQD4Od1X/jKqDb9vKSyO02yBasJB0o/eOw+Q8cX5W11se5uCwBRSD1JPUwVAoTM8/Z6DNQdcCAH/Y5eHv50JjGpAamGZtXC8X28vAAUABUChrZd+pwCozPuD/mmx8ZeWwsZq5BvH/6WVc88cD9/v8bBoOwVBEJJs5mMpACoTrgQQCiFL/MDmIy6697pQaz18bWYxqeh83zte19sLEGcBIPi+ts/FU6s8fKfLw4QlHp7s9rB0twvpoSklKx35HRgDUIwrBcAgmq++Y0QGX7AUVup88et9LekhkCVLv7vUw9T1LlbuZfrhZib6SnWjACh2iKWkU+n39mMuxi/Wn3VQEgTpnBYYVwGwZJeLMdMrC6mbZFn1DR7OX8o/HwqAPBaV7DLofgqA6nxf8YiUjb+++tlUb/KO6n63PA88tNDDUyvd7LDBxoMcNqhEnM2ynwIgnFNdtd+FLP2t851cvkffjIC4CYALl53ssGSteD240MOJgWERCoBwtlpOHFAAVKT32v+wMvirlMKaJMUI1PoC3jYdeHiRiAIPsze7WLPPwe5jFAZJFAA7jzno2evixY0u/qXbywbASTa6Wm2h0nGjn8eg7tpyzqZZ90nCobs0DgtIV7gurOImANrWBO81+btZwLHzDigAKABqZ+UGHNnShs9YGcxJyqyBSg692v7rO4C7Z3nZedX2GhcLtlEYxEkQ7DiaI3oRbM+scvEPSySwLbpod9MFgJD14TMOdIgpefckXkcCE3WIgDgJgI1vD3+NhrFzPdjrgouHUl/GGIBiu2IPQARC4Yvt+M2UjR9YCldKDbCZf4vjkriC8Yu8bAtz2gYXS3a4WHfAwS72GmhL3ytiY+dRB6v3OVi43c3GcDy5wssO38gKkxLfUU87owDIOVUJFNQ1pVBmJTSbAHhoUTgC12HXFAAUABFQfvlLju7EtVfXGLg3rbCnng45jveSFQ8l6GfcvNxUK4kzEIEwf5ub7ZbeeIjDCoW9CFsO51rx0rsyfYObjcuQgM375nmQYRkdzlCXnVAA5J2qEIwOXGW2QTMJgKPnnFhkYaQAyNuq2Bd7AMpzt/a9MoVwYOXB/9HhIJrxGjL3WkTCvXO8bC/CxGW5aYv2WhedG3NDDa/2uli334EQZJJiEXYccSBBlTLbQnpFpHv+ufU5Yp+83MOEl3PkLi14GWJJ0vOlAMg7VRmrvvG58M9P4m6aSQCsOjD87n+d7wIFQN5WKQC003z1C7a041csGw+zVyC8kxTHcGMHsmOvX+0EvjHbw/0veXh0cY5QRUBMWpYbjpD8B22rXWRW57rMZepj4WfmphwpCzEXfiRgrvA4+d6+1s1e6wc9uWtPftWD3EvG2h9ZnCvD12d5uGMG8OWpjUkqo9NpVrsWBUCxU5W57NUwq/a/LAveTAJg0Q4KgGrPvPT/DYf1DAMNZUfsAajO2ZEdMaIdf2wptFoKp0sfPn/rEQjEMXocKQCKBYAkt9FhdzoCAZ9YEV6MzN0Wnohe6dWDSVhcM5qGVoYiVflPhurClpUCIDLqjdeFv9KFX0jbuMFSWGQpfBDWcHh+9KRHjPMYUwAUC4BTF53Qzl/s60Bf8XWrkU65/yUVeFhblYQ85a4dZN/Wo/EQALI0dJByD/dYCoC8f6jV/uLFyg0qTUsrPmHZGG3ZmG8p/Het4PG44AZHzPRgRgEwmKglo19Y+9p1InzLezjz7kvLPXlFeNLsv+RgtOaESaXlrOW3jt6MWkQBBUBw+28Q5cb3tp+38cmUwpiUwhKKgeAGVYtD4DHhcaUAGCwAZEGhsLa1+e3wAmDWlvAtb0nEUwvpVTtG1jkIi0nY8yUYsVo5dfxPARDc/uPLxDEomQwTDKxB8LSVwbGwLwLPD26gxKw8ZhQAgwWAjgWDthwJT1Yr9oYXAGL3R84NrmNQopQFfm5/obwN1evd2nMyPKa11JsCIPhzjgHNJqcII2z8WUphoqWw3VL4Wb1eIN4nuGE3O2YUAIPJUZb2Dfvcd2sYAug9oUcAzNmqhzhlESUd2AwHW0nSpHOhpaGEAAVAcPtPDvvGrKSj2vBLaRsjLIWnLYW9w3k5eE5wgyVmOcwoAIoFgCwhrMM2DmoIAuz/oYORGsTI3bM9XLxSXM+hCHCo/yS6vREiQEh5qHLp/I8CILg/jRmtJrc4Vga/a2UwzlJYbCmc1+GMeI3gBm0KZhQAxcSoY8qbZHrU1Vq9f76esXdZ+VAXSTZCBDy7mgKg9PkxD0Byeb7mko98Br9lKXwlrfDcQA+BZwo5sZ7RCxcKgGIB8Pgr4Qn3jk49gXfi8HUF38mKh0IYpSQy3N/1FgErNQqYanVmD0Bwv1MzofHAcAikO/Ablo3bBoYMNnKGQXBjpbDIY0YBkCfF/acdSErrsPbx7Zf1tVaFaMOWxz+/fb2+cgmJ1ksEyJCDrh6VauQv/1MABH8HwrEazx42Aq2t+GjKxp9aCmMthekDaYp/6r/03AY3ZpMwowDICwBJCa3j2etIvuMTlczBv2WaHhuWoYnVmqfS1UMESK+Mj0c9thQAwe1t2ATGE/Uj0NKKj6Uz+BMrg69JT0FKYY2l0K/DufEawV8OzZh9aCkcyMaI2LDDXpsCICcAut9yta14t1FDDoBCotO1SqHYirSmJbNf4fXDfo9aBHxjjocT/XmhFra81c6nAAju4/SzGK+oHYGWDD49og0taYVvWQrtaYW1A2sZMK5ABTf6sORb5XxJK71PEkmlFJ7IJpXqwB+JuPMNI23jD6pco2qLlgLAwa7j+iLbhWDPaRxrF7LacVzfMIDYi6x4uO5gskTA2Ln1EwEUAMF9oe+TuE0gAqM7ce0Ihb9IK9yZzmCSpTDTsvFGSuEU8xQEfxkCkPJPLIWDlsKKdAbPXu2l+aYINAn8rMWMKADCtwolYc+tmrrY5blPWh5Nd/W4l/QMT/i2OcIGpm90IUMM1VrEtfz/7gUHsgyyf/0otvUSARQAwX1eLf6KxyQQgc914uNCNJKrIG3jvqsv9pOWwotpG6sGyOtSFC97E1zz/1IKZ60Mdlg2lmd7XDJ4NJ3BrSK2vvDv+NWw5kABMHzykjn2kmpXR9Bfoa3qHmP3ybfnLb29AH6Z75nrYVOIIYuLlx0s63Vxm0YR5Zet3LYeIoACgAIgrG826nxZBKnFxh9KumMhuFQG91s2Jls2OlIKCy2F9QPj1mcshR+Xe7ETsu+/LBvHs6SusDKVwbyUgsr2mti4J6VwU7oNn5WZGvUwAAqA4AJAosmX97rQke631Gb/ZjpwXlOL2id+fytEK2PhpffU9fvBhV6WyM+8XxumkjBp9lYXd74YnCzCljlqEUABEPyZ1sPf8R5NhIC0gCXpUZYwbXwx1YabJd/BgHh4wFJ4fGA4QtZPyKRtdFoZzLEUugZ9bKxOZfB66cdSeG3QsQpzs9ey0TEwlbJV7pXKYILcO2XjDlneOdWO6yRls5Qx21oHrokb/M0iAI6ed/DmO252WpkElOn8yFi3JPeZscnFY11epFnspEfBJ+wotmsORNMLUEjIozqAv1/kwV7n4eWdLnr2uVh/yM2KJlmN7+n/8LJCJN3gmJkoRYAOATBrc3g7lgWlZGpqpWEaJgKKm0dmeYhAHRFIsgCQlrgQpqSpLSSgpH7/8vNAX42t5zDi4DtdzYGXjucsKx0eO19bj0UQzHUIAB31868hgbqt3V5WDBTWgwKgjs6WtyICcUMgqQJg1wkXki3Pd3DNsNW14E6hgy/3/dAZBzdPaS7swjz/KHoC4iYAfHxkQSTpyfLXdaAAiJtHZnmIQB0RSKIA2NbAFeV8R6p7K2PzUY39lxMBS3ZFPxSgG6Mor3fvXE9rpsC4CgAfQxmGEbugAKijs+WtiEDcEEiaAJBkLhIo5zuyZthKdr3NR6Id+y8nAp5YwaGAQvv5/kp90y/jLgCk3hLXQgEQN4/M8hCBOiKQNAGQWdt8pKUz7W85oq+0T2Ioxs1rPjwLST3IdxFivSf0CLEkCAAR0icvOOh9J9xny2E9y1/X0e3xVkSACAgCSRIAMu++2cauJVr+wmX9QWiVSL90/5FzDu5ssliKIKRfeqyuJYOTIACk7kt3uRQApAIiYCoCSRIAb2hc1a7U8Tfit0Sg1zM/fSn5+78PnHbqloSnETgHuac8Ex+XMNukCIB/etWjADDV+bPeRCBJAkDmlAdx5nE+dswLgETjhyEZnece6nPw1QYk5InbM5J1GHTgmhQBIOmhOQRAHiAChiKQJAEwb1tzCADJfCfJWXQQjc5rvH3WgUyJixspVyqPJBJ6stvD9VdXJ6x0TND9Mk1OMiaGxfWBBcnA8euzQQFgqO9ntYlAomIAuvcmXwBI0qIjZ8MTTFiCqnS+JCKauCz+5CWrEcraBlIPyTIoLfegZF/u+Ntn6OkBSAKGUv/xi9gDQBogAsYikKQeAOkyL+e0k7JPSOHUxfiSf6Eo6Op1s0v+xhFb6bYu7UF5XZMImLxCz1TAmZuTIVbb11MAGOv8WXEikCQBIAQlCVviSEpDlUlmLkj8QiHBJuG7kGzUy/MOhVvpf9LKlyx2lfLa6xABq/breU4SWCnTCkvrELff249xFgBZgAgYi0DSBIAslRs3JzpUeSTvvoytJ4HwK5VRhl4aGSAoRDrpVQ+HawiaDCMCpGfBT5FbCYsg+yU+YSjbaPR/j73iMRGQsZ6fFScCCcsD4DvfuDtWceyPLPYgK7H5ZU76VtIUS/rgu2bWr1UrAXkTl3vYczIYjsMRAV+aqj8wU5LsNFI4DSUwbpuGbCwKMwGSBoiAwQgkrQdAiFSc1vdiGKgmgWn/3O1B1ipIOuFXKr+0kCXoTuIZdAXelRKVkKZkRwwTLLnp6jK4t0yrTazcOg3YcjSaZ/bWu/FLtDRmOiCLafnvEqcBGkwArLrZCCRRAIjjEiKSaYGyzGkpgdTzt6RTlcAxyatej6V8KxFzI/affs/Bir1udipemGyCIzuABxd6WdLfcVwfEcvQy6TlXsWxeBlakPUQwgiNWnA/3u9kl+JtdEyATJsUPCT7o19u9gCY7f9Ze8MRSKoA8B2YRNUv63XR+pqXDViTBCxRfKRL/7EuL+vIJRBNpqDtO5V3pH55TN4ePedg3UEXs7e6eHaNh+8t97JDIQ8uyD2T8Ys9TFjiZQXD1Ne97JDCzuO5BWmixO1gn4OXtrv4t5VedkjhqVUeFrzp1hRToLNcB/oczNqc6z2RPAFR2GnpNb8138Pjr3jo3FTeXikADCcAVt9sBJIuAHQ6aF6LgsY0G6AAMNv/s/aGI0ABQNIzjfRY37zNUwAYTgCsvtkIUADknSGJgViYZgMUAGb7f9becAQoAEh6ppEe65u3eQoAwwmA1TcbAQqAvDMkMRAL02yAAsBs/8/aG44ABQBJzzTSY33zNk8BYDgBsPpmI0ABkHeGJAZiYZoNUACY7f9Ze8MRoAAg6ZlGeqxv3uYpAAwnAFbfbAQoAPLOkMRALEyzAQoAs/0/a284AhQAJD3TSI/1zds8BYDhBMDqm40ABUDeGZIYiIVpNkABYLb/Z+0NR4ACgKRnGumxvnmbpwAwnABYfbMRoADIO0MSA7EwzQYoAMz2/6y94QhQAJD0TCM91jdv8xQAhhMAq282AhQAeWdIYiAWptkABYDZ/p+1NxwBCgCSnmmkx/rmbZ4CwHACYPXNRoACIO8MSQzEwjQboAAw2/+z9oYjQAFA0jON9FjfvM1TABhOAKy+2QhQAOSdIYmBWJhmAxQAZvt/1t5wBCgASHqmkR7rm7d5CgDDCYDVNxsBCoC8MyQxEAvTbIACwGz/z9objgAFAEnPNNJjffM2TwFgOAGw+mYjQAGQd4YkBmJhmg1QAJjt/1mp20IzAAAED0lEQVR7wxGgACDpmUZ6rG/e5ikADCcAVt9sBCgA8s6QxEAsTLMBCgCz/T9rbzgCLe34PUsBYT43PQeY5jhZX4qFZrCB85cc9L4T7rPpoBPKfwz4HtdwV8zqE4H6I9CSwafDkL9/bt/7JIRmIATWwSw7PvfDcOQv4uG1Pa4OAfDj+ns/3pEIGI7AjVPwiz6Jh9luPeqyF+CKWeRBsZD85913MbwAmPGGBgFg45zhrpjVJwKNQcBSuBKG/OVce51HAUABQBtImA2cOB9eADy8yNPRA7C7Md6PdyUChiOQVtgZVgDcPAU43p/8FhFbtXyGJtnAob5wAqBnr4u0HS6GKOt7bMw33A2z+kSgMQikFWaHFQBy/qTlHi4mrAVkkrNnXSluCm3g4mUHe08MXwDsOOpg7BwtrX+kFCY2xvvxrkTAcAQshbE6BIBcQ4YCKAJINIVEw+/xtIfTIcb/hfy/vVgP+YvfSLXjOsPdMKtPBBqDwIgO/I4uASDX+W6Xh8Nn4un0SEZ8LrSBnA0cOj281n/PHldby3/A73zwuU58vDHej3clAkTgI5bCPp0i4PoOoLXbQ89bLva+6+LkBQfv8kMMaAOxsIEjZx1sOVzbR+b5y1i/RPtLwJ+WMf/C3CMZLKULJgJEoIEIpDKYoFMA8FoaAqMKnSS/64g05zViaEdphS810PXx1kSACIxqw69bCv9L4iZx0wZoA3WzARvn2P1P/iECMUAgpfB83V78GLZEWHcSH22gvjaQzuDRGLg+FoEIEIGBYMCf0gnW1wkSb+Jtog2kFS6M7sS19LxEgAjEBAFLodVEZ8Q6k4RpA/W1gZSNu2Li9lgMIkAEBIGWVnzCsnGczrC+zpB4E2/DbGDDR4Br6HWJABGIGQLpNnzWUuBQAOMUGDVPG4jCBq7IcGPM3B6LQwSIgI9AysZDhrVIonB0vCYJlDZQbANO2sYNvp/hlggQgZgiYCm0UQSwa5o2QBvQZgMZjI+pu2OxiAARKEIAuMZSmKnt5S9uCbBlRDxoAwbZABf8KfKu/EEEEoBATgRwZoBBjpqCjy1+zTbgWDYeSIC3YxGJABEoh0Daxn3MFEhi0EwM7AFofmF5iWP+5Twq9xGBhCHQ0obPWDb+kyRAIUAboA3UYAMbWp7BbyfMzbG4RIAIVEKgpRUfG1g46Cc1OAC28Jq/hcdnzGdcZAOS4Y9Jfip5UO4nAk2AwI1T8KmruQIetxSuUAiwNUgboA1YCu+JT2B63yZw8KwCEagFgc/b+KSofcvGakvhQxIBiYA2YJQNfGBlsFSW9OWqfrV4TB5DBJoUAVH+6QxGynoCKYUl6Qz2Wwr9lgKHC9hNXNRNTJGQOJHwo5TCWUuh11JYIFP6Uu24Tifp/z8E0vTIxW/GNwAAAABJRU5ErkJggg==;" vertex="1" parent="1">
          <mxGeometry x="385" y="-30" width="70" height="70" as="geometry" />
        </mxCell>
      </root>
    </mxGraphModel>
  </diagram>
</mxfile>
